<svg xmlns="http://www.w3.org/2000/svg" viewBox="0 0 392.46 392.46"><g id="Layer_2" data-name="Layer 2"><g id="Layer_1-2" data-name="Layer 1"><g id="compass"><rect x="355" y="99.49" width="11.77" height="3.14" rx="0.78" transform="translate(-2.18 193.98) rotate(-30)" fill="#939598"/><rect x="25.31" y="289.83" width="11.77" height="3.14" rx="0.89" transform="translate(-141.52 54.64) rotate(-30)" fill="#939598"/><rect x="369.02" y="129.56" width="11.77" height="3.14" rx="0.78" transform="translate(-22.24 136.13) rotate(-20)" fill="#939598"/><rect x="11.29" y="259.76" width="11.77" height="3.14" rx="0.89" transform="translate(-88.35 21.63) rotate(-20)" fill="#939598"/><rect x="377.61" y="161.61" width="11.77" height="3.14" rx="0.78" transform="translate(-22.51 69.07) rotate(-10)" fill="#939598"/><rect x="2.7" y="227.72" width="11.77" height="3.14" rx="0.89" transform="translate(-39.68 4.97) rotate(-10)" fill="#939598"/><rect x="381.93" y="223.4" width="3.14" height="11.77" rx="0.78" transform="translate(91.1 567.14) rotate(-80)" fill="#939598"/><rect x="7.02" y="157.29" width="3.14" height="11.77" rx="0.89" transform="translate(-153.6 143.3) rotate(-80)" fill="#939598"/><rect x="373.34" y="255.45" width="3.14" height="11.77" rx="0.78" transform="translate(1.11 524.25) rotate(-70)" fill="#939598"/><rect x="15.61" y="125.24" width="3.14" height="11.77" rx="0.89" transform="translate(-111.92 102.42) rotate(-70)" fill="#939598"/><rect x="359.32" y="285.52" width="3.14" height="11.77" rx="0.78" transform="translate(-71.92 458.24) rotate(-60)" fill="#939598"/><rect x="29.63" y="95.17" width="3.14" height="11.77" rx="0.89" transform="translate(-71.92 77.55) rotate(-60)" fill="#939598"/><rect x="340.29" y="312.7" width="3.14" height="11.77" rx="0.78" transform="translate(-121.93 375.68) rotate(-50)" fill="#939598"/><rect x="48.66" y="67.99" width="3.14" height="11.77" rx="0.89" transform="translate(-38.65 64.87) rotate(-50)" fill="#939598"/><rect x="316.82" y="336.16" width="3.14" height="11.77" rx="0.78" transform="translate(-145.37 284.68) rotate(-40)" fill="#939598"/><rect x="72.12" y="44.53" width="3.14" height="11.77" rx="0.89" transform="matrix(0.77, -0.64, 0.64, 0.77, -15.17, 59.16)" fill="#939598"/><rect x="289.64" y="355.19" width="3.14" height="11.77" rx="0.78" transform="translate(-141.52 193.98) rotate(-30)" fill="#939598"/><rect x="99.3" y="25.5" width="3.14" height="11.77" rx="0.89" transform="translate(-2.18 54.64) rotate(-30)" fill="#939598"/><rect x="259.57" y="369.21" width="3.14" height="11.77" rx="0.78" transform="translate(-112.54 111.94) rotate(-20)" fill="#939598"/><rect x="129.37" y="11.48" width="3.14" height="11.77" rx="0.89" transform="translate(1.96 45.83) rotate(-20)" fill="#939598"/><rect x="227.53" y="377.8" width="3.14" height="11.77" rx="0.78" transform="translate(-63.15 45.61) rotate(-10)" fill="#939598"/><rect x="161.42" y="2.89" width="3.14" height="11.77" rx="0.89" transform="translate(0.95 28.44) rotate(-10)" fill="#939598"/><rect x="157.1" y="382.12" width="11.77" height="3.14" rx="0.78" transform="translate(-243.17 477.57) rotate(-80)" fill="#939598"/><rect x="223.21" y="7.21" width="11.77" height="3.14" rx="0.89" transform="translate(180.67 232.87) rotate(-80)" fill="#939598"/><rect x="125.05" y="373.53" width="11.77" height="3.14" rx="0.78" transform="translate(-266.32 369.85) rotate(-70)" fill="#939598"/><rect x="255.26" y="15.8" width="11.77" height="3.14" rx="0.89" transform="translate(155.51 256.82) rotate(-70)" fill="#939598"/><rect x="94.98" y="359.51" width="11.77" height="3.14" rx="0.78" transform="translate(-262.27 267.89) rotate(-60)" fill="#939598"/><rect x="285.33" y="29.82" width="11.77" height="3.14" rx="0.89" transform="translate(118.43 267.89) rotate(-60)" fill="#939598"/><rect x="67.8" y="340.48" width="11.77" height="3.14" rx="0.78" transform="translate(-235.7 178.63) rotate(-50)" fill="#939598"/><rect x="312.51" y="48.85" width="11.77" height="3.14" rx="0.89" transform="translate(75.11 261.91) rotate(-50)" fill="#939598"/><rect x="44.34" y="317.01" width="11.77" height="3.14" rx="0.78" transform="translate(-193.03 106.82) rotate(-40)" fill="#939598"/><rect x="335.97" y="72.31" width="11.77" height="3.14" rx="0.89" transform="translate(32.49 237.02) rotate(-40)" fill="#939598"/><rect x="25.31" y="289.83" width="11.77" height="3.14" rx="0.78" transform="translate(-141.52 54.64) rotate(-30)" fill="#939598"/><rect x="355" y="99.49" width="11.77" height="3.14" rx="0.89" transform="translate(-2.18 193.98) rotate(-30)" fill="#939598"/><rect x="11.29" y="259.76" width="11.77" height="3.14" rx="0.78" transform="translate(-88.35 21.63) rotate(-20)" fill="#939598"/><rect x="369.02" y="129.56" width="11.77" height="3.14" rx="0.89" transform="translate(-22.24 136.13) rotate(-20)" fill="#939598"/><rect x="2.7" y="227.72" width="11.77" height="3.14" rx="0.78" transform="matrix(0.98, -0.17, 0.17, 0.98, -39.68, 4.97)" fill="#939598"/><rect x="377.61" y="161.61" width="11.77" height="3.14" rx="0.89" transform="translate(-22.51 69.07) rotate(-10)" fill="#939598"/><path d="M23.54,197v-1.57c0-.44-.7-.79-1.57-.79H1.57c-.87,0-1.57.35-1.57.79V197c0,.43.7.78,1.57.78H22C22.84,197.8,23.54,197.45,23.54,197Z" fill="#3ba28b"/><path d="M392.46,196.91v-1.36c0-.49-.79-.89-1.77-.89h-20c-1,0-1.78.4-1.78.89v1.36c0,.49.8.89,1.78.89h20C391.67,197.8,392.46,197.4,392.46,196.91Z" fill="#3ba28b"/><rect x="7.02" y="157.29" width="3.14" height="11.77" rx="0.78" transform="translate(-153.6 143.3) rotate(-80)" fill="#939598"/><rect x="381.93" y="223.4" width="3.14" height="11.77" rx="0.89" transform="translate(91.1 567.14) rotate(-80)" fill="#939598"/><rect x="15.61" y="125.24" width="3.14" height="11.77" rx="0.78" transform="translate(-111.92 102.42) rotate(-70)" fill="#939598"/><rect x="373.34" y="255.45" width="3.14" height="11.77" rx="0.89" transform="translate(1.11 524.25) rotate(-70)" fill="#939598"/><rect x="29.63" y="95.17" width="3.14" height="11.77" rx="0.78" transform="translate(-71.92 77.55) rotate(-60)" fill="#939598"/><rect x="359.32" y="285.52" width="3.14" height="11.77" rx="0.89" transform="translate(-71.92 458.24) rotate(-60)" fill="#939598"/><rect x="48.66" y="67.99" width="3.14" height="11.77" rx="0.78" transform="translate(-38.65 64.87) rotate(-50)" fill="#939598"/><rect x="340.29" y="312.7" width="3.14" height="11.77" rx="0.89" transform="translate(-121.93 375.68) rotate(-50)" fill="#939598"/><rect x="72.12" y="44.53" width="3.14" height="11.77" rx="0.78" transform="translate(-15.17 59.16) rotate(-40)" fill="#939598"/><rect x="316.82" y="336.16" width="3.14" height="11.77" rx="0.89" transform="translate(-145.37 284.68) rotate(-40)" fill="#939598"/><rect x="99.3" y="25.5" width="3.14" height="11.77" rx="0.78" transform="translate(-2.18 54.64) rotate(-30)" fill="#939598"/><rect x="289.64" y="355.19" width="3.14" height="11.77" rx="0.89" transform="translate(-141.52 193.98) rotate(-30)" fill="#939598"/><rect x="129.37" y="11.48" width="3.14" height="11.77" rx="0.78" transform="translate(1.96 45.83) rotate(-20)" fill="#939598"/><rect x="259.57" y="369.21" width="3.14" height="11.77" rx="0.89" transform="translate(-112.54 111.94) rotate(-20)" fill="#939598"/><rect x="161.42" y="2.89" width="3.14" height="11.77" rx="0.78" transform="translate(0.95 28.44) rotate(-10)" fill="#939598"/><rect x="227.53" y="377.8" width="3.14" height="11.77" rx="0.89" transform="translate(-63.15 45.61) rotate(-10)" fill="#939598"/><path d="M195.26,23.54h1.57c.43,0,.78-.7.78-1.57V1.57c0-.87-.35-1.57-.78-1.57h-1.57c-.44,0-.79.7-.79,1.57V22C194.47,22.84,194.82,23.54,195.26,23.54Z" fill="#3ba28b"/><path d="M195.36,392.46h1.36c.49,0,.89-.79.89-1.77v-20c0-1-.4-1.78-.89-1.78h-1.36c-.49,0-.89.8-.89,1.78v20C194.47,391.67,194.87,392.46,195.36,392.46Z" fill="#3ba28b"/><text transform="translate(187.23 50.51)" font-size="18.83" fill="#6d6e71" font-family="ArialRoundedMTBold, Arial Rounded MT Bold">N</text><text transform="translate(189.64 357.84)" font-size="18.83" fill="#6d6e71" font-family="ArialRoundedMTBold, Arial Rounded MT Bold">S</text><text transform="translate(30.84 203.96)" font-size="18.83" fill="#6d6e71" font-family="ArialRoundedMTBold, Arial Rounded MT Bold">W</text><text transform="translate(350.92 202.76)" font-size="18.83" fill="#6d6e71" font-family="ArialRoundedMTBold, Arial Rounded MT Bold">E</text></g></g></g></svg>