<svg xmlns="http://www.w3.org/2000/svg" viewBox="0 0 112.54 152.45"><g id="Layer_2" data-name="Layer 2"><g id="Layer_1-2" data-name="Layer 1"><g id="logo"><path d="M108.75,105.34l-5.1,5.1a13,13,0,0,0-3.8,9.16v6.12A13,13,0,0,1,86.9,138.67H80.78a12.94,12.94,0,0,0-9.16,3.79l-6.19,6.19a13,13,0,0,1-18.32,0l-6.19-6.19a12.94,12.94,0,0,0-9.16-3.79H25.64a13,13,0,0,1-12.95-12.95V119.6a13,13,0,0,0-3.8-9.16l-5.1-5.1A13,13,0,0,1,3.79,87l5.1-5.1a13,13,0,0,0,3.8-9.16v-8.3a13,13,0,0,1,13-13h8.3a12.94,12.94,0,0,0,9.16-3.79l4-4a13,13,0,0,1,18.32,0l4,4A13,13,0,0,0,78.6,51.5h8.3a13,13,0,0,1,12.95,13v8.3a13,13,0,0,0,3.8,9.16l5.1,5.1A13,13,0,0,1,108.75,105.34Z" fill="#3ba28b"/><g id="Layer_2-2" data-name="Layer 2"><g id="Layer_1-2-2" data-name="Layer 1-2"><path d="M56.25,121.81a24.06,24.06,0,1,1,24.07-24A24.08,24.08,0,0,1,56.25,121.81ZM35.46,98.56c.46,11.85,10.46,19.92,20,20,0-.11,0-.22,0-.34v-3.56a.76.76,0,0,1,.68-.82h.13a.76.76,0,0,1,.78.8c0,.28,0,.56,0,.85v3.14a20.93,20.93,0,0,0,13.34-5.52.64.64,0,0,0-.1-.13l-1.69-1.7c-.35-.35-.7-.68-1-1a.75.75,0,0,1,0-1.06h0a.77.77,0,0,1,1.08-.08l0,0c.14.11.27.25.4.37l2.45,2.43a20.36,20.36,0,0,0,5.52-13.33h-3.9a.77.77,0,0,1-.85-.78.79.79,0,0,1,.86-.82h3.9a20.8,20.8,0,0,0-20-20c0,.11,0,.22,0,.34v3.55a.77.77,0,0,1-.78.86.79.79,0,0,1-.82-.86V76.9a21,21,0,0,0-13.39,5.57c.36.33.66.62,1,.91.62.61,1.23,1.22,1.84,1.84a.77.77,0,0,1,0,1.16.79.79,0,0,1-1.19,0c-.21-.19-.4-.4-.61-.6L41,83.58a20.93,20.93,0,0,0-5.55,13.36H36c1.12,0,2.23,0,3.35,0a1,1,0,0,1,.74.45.86.86,0,0,1-.08.81,1.15,1.15,0,0,1-.79.31c-1.25,0-2.5,0-3.79,0Z" fill="#fff" stroke="#fff" stroke-miterlimit="10"/><path d="M62.68,98.58c0,1.14,0,2.24,0,3.34a2.34,2.34,0,0,1-2.3,2.24c-2.74,0-5.47,0-8.21,0a2.36,2.36,0,0,1-2.3-2.23c0-.94,0-1.9,0-2.85V98.6Z" fill="#fff" stroke="#fff" stroke-miterlimit="10" stroke-width="0.75"/><path d="M62.68,95.32H49.89a16,16,0,0,1,0-2,2.35,2.35,0,0,1,2.32-2q4.06,0,8.12,0a2.38,2.38,0,0,1,2.34,2.35C62.7,94.21,62.68,94.74,62.68,95.32Z" fill="#fff" stroke="#fff" stroke-miterlimit="10" stroke-width="0.75"/><path d="M53.87,106.52a.88.88,0,0,1-.69.86L48,109.27c-1.1.4-2.2.79-3.29,1.2a.86.86,0,0,1-1.06-.15.91.91,0,0,1-.1-1q1.53-4.17,3-8.36c.16-.44.38-.8.91-.75s.69.42.76.9c.18,1.13.41,2.26.57,3.4a.69.69,0,0,0,.69.71c1.2.17,2.4.39,3.61.59A.79.79,0,0,1,53.87,106.52Z" fill="#fff" stroke="#fff" stroke-miterlimit="10" stroke-width="0.75"/><path d="M69.1,85.8a4.14,4.14,0,0,1-.14.44c-1,2.77-2,5.54-3,8.32-.16.44-.38.81-.91.77s-.7-.41-.77-.89c-.19-1.17-.4-2.34-.57-3.51a.59.59,0,0,0-.61-.6c-1.21-.18-2.41-.4-3.61-.59-.45-.08-.75-.29-.79-.76a.79.79,0,0,1,.62-.85L67.92,85A.81.81,0,0,1,69.1,85.8Z" fill="#fff" stroke="#fff" stroke-miterlimit="10" stroke-width="0.75"/></g></g><path id="pointer" d="M55.78,1.19a2.38,2.38,0,0,1,4.12,0l6,10.38,6,10.38a2.37,2.37,0,0,1-2,3.56h-24A2.37,2.37,0,0,1,43.8,22l6-10.38Z" fill="#a7a9ac"/></g></g></g></svg>