<svg xmlns="http://www.w3.org/2000/svg" viewBox="0 0 122.38 117.43"><defs><style>.cls-1{opacity:0.9;}.cls-2{fill:#fff;}</style></defs><g id="Layer_2" data-name="Layer 2"><g id="Layer_1-2" data-name="Layer 1"><g class="cls-1"><path class="cls-2" d="M110.49,92.75a.61.61,0,0,0,.06.79c.42.44.82.34,1-.06s.27-.73-.3-1A.61.61,0,0,0,110.49,92.75ZM81.07,115.23a.61.61,0,0,0-.42.67c.08.61.47.76.85.54.43-.07.64-.43.32-1A.6.6,0,0,0,81.07,115.23Zm-37,.89a.62.62,0,0,0-.74.3c-.29.54-.07.88.37.93.4.2.77,0,.82-.57A.62.62,0,0,0,44.06,116.12Zm-30.47-21a.61.61,0,0,0-.77-.19c-.55.26-.58.67-.25,1s.6.48,1,0A.61.61,0,0,0,13.59,95.09ZM1.3,60.16a.62.62,0,0,0-.51-.61c-.6-.11-.86.21-.77.64-.07.44.2.75.8.61A.62.62,0,0,0,1.3,60.16ZM11.89,24.68a.62.62,0,0,0-.06-.79c-.42-.44-.82-.34-1,.07s-.27.72.29.95A.62.62,0,0,0,11.89,24.68ZM41.31,2.2a.6.6,0,0,0,.42-.67c-.08-.61-.47-.76-.85-.54s-.64.43-.32,1A.6.6,0,0,0,41.31,2.2Zm37-.89a.62.62,0,0,0,.74-.3c.29-.54.07-.88-.37-.93s-.77,0-.82.58A.62.62,0,0,0,78.32,1.31Zm30.47,21a.61.61,0,0,0,.77.19c.55-.26.58-.67.25-1s-.6-.48-1,0A.61.61,0,0,0,108.79,22.34Zm12.29,34.93a.62.62,0,0,0,.51.61c.6.11.86-.21.77-.64.07-.44-.2-.74-.8-.6A.6.6,0,0,0,121.08,57.27Zm-26.3.63a9.39,9.39,0,0,1-.62,1.9,2.75,2.75,0,0,1-1,1.24c-1.15,1.09-1.22,1.5-.26-.56a23.9,23.9,0,0,1,1.61-2.57,21.65,21.65,0,0,1-1.73-2.5c-1.06-2-1-1.6.23-.56a2.71,2.71,0,0,1,1,1.19A9.32,9.32,0,0,1,94.78,57.9ZM88.85,77.81A11.22,11.22,0,0,1,87.22,79a2.69,2.69,0,0,1-1.51.43c-1.57.22-1.86.5.12-.6a23.41,23.41,0,0,1,2.82-1.13,22.79,22.79,0,0,1,.06-3c.32-2.24.16-1.86.52-.32a2.71,2.71,0,0,1,.13,1.57A11.61,11.61,0,0,1,88.85,77.81ZM72.34,90.42a10.55,10.55,0,0,1-2,0,2.71,2.71,0,0,1-1.48-.53c-1.4-.75-1.8-.7.45-.42a22.23,22.23,0,0,1,2.94.74,23.16,23.16,0,0,1,1.84-2.42c1.58-1.63,1.22-1.42.61,0a2.71,2.71,0,0,1-.82,1.35A10.45,10.45,0,0,1,72.34,90.42Zm-20.76.5A11.6,11.6,0,0,1,50,89.74a2.77,2.77,0,0,1-.88-1.31c-.68-1.43-1.05-1.62.61-.07a22,22,0,0,1,1.95,2.33,21.48,21.48,0,0,1,2.91-.88c2.23-.39,1.82-.43.46.39a2.67,2.67,0,0,1-1.45.61A10.63,10.63,0,0,1,51.58,90.92ZM34.49,79.12a9.86,9.86,0,0,1-.61-1.9,2.75,2.75,0,0,1,0-1.57c.29-1.56.11-1.93.54.29a22.81,22.81,0,0,1,.21,3,23.45,23.45,0,0,1,2.87,1c2,1,1.72.73.14.6a2.72,2.72,0,0,1-1.53-.37A10.43,10.43,0,0,1,34.49,79.12Zm-6.9-19.59a10.58,10.58,0,0,1,.63-1.9,2.75,2.75,0,0,1,1-1.24c1.14-1.09,1.22-1.49.26.56a22.75,22.75,0,0,1-1.62,2.57A22,22,0,0,1,29.57,62c1.06,2,1,1.6-.23.56a2.71,2.71,0,0,1-1-1.19A10.49,10.49,0,0,1,27.59,59.53Zm5.94-19.9a10.4,10.4,0,0,1,1.62-1.17A2.73,2.73,0,0,1,36.66,38c1.58-.21,1.87-.5-.11.6a24.12,24.12,0,0,1-2.82,1.13,22.79,22.79,0,0,1-.06,3c-.32,2.24-.16,1.86-.52.32A2.71,2.71,0,0,1,33,41.55,10.14,10.14,0,0,1,33.53,39.63ZM50,27a9.34,9.34,0,0,1,2,0,2.71,2.71,0,0,1,1.48.53c1.39.75,1.8.7-.45.42a20.74,20.74,0,0,1-2.94-.74,23.16,23.16,0,0,1-1.84,2.42c-1.58,1.63-1.23,1.42-.61,0a2.71,2.71,0,0,1,.82-1.35A9,9,0,0,1,50,27Zm20.76-.51a11.17,11.17,0,0,1,1.61,1.19,2.77,2.77,0,0,1,.88,1.3c.68,1.43,1,1.62-.61.07a21,21,0,0,1-2-2.33,21.91,21.91,0,0,1-2.91.88c-2.23.39-1.82.43-.46-.39a2.67,2.67,0,0,1,1.45-.61A10.61,10.61,0,0,1,70.8,26.51Zm17.09,11.8a9.86,9.86,0,0,1,.61,1.9,2.66,2.66,0,0,1-.06,1.57c-.28,1.56-.1,1.93-.53-.29a21.1,21.1,0,0,1-.21-3,23.45,23.45,0,0,1-2.87-1c-2-1-1.72-.73-.14-.59a2.64,2.64,0,0,1,1.53.36A10.43,10.43,0,0,1,87.89,38.31Zm6.4,19.61a12.27,12.27,0,0,0-2,3.45,3.91,3.91,0,0,1,1.44-3.44,3.86,3.86,0,0,1-1.6-3.37A12,12,0,0,0,94.29,57.92ZM88.44,77.53a11.89,11.89,0,0,0-3.65,1.62,3.9,3.9,0,0,1,3.18-2,3.86,3.86,0,0,1,.7-3.66A11.92,11.92,0,0,0,88.44,77.53ZM72.18,90a12.19,12.19,0,0,0-3.91-.83,3.88,3.88,0,0,1,3.72.3,3.88,3.88,0,0,1,2.72-2.56A12,12,0,0,0,72.18,90Zm-20.46.5a12,12,0,0,0-2.67-3,3.86,3.86,0,0,1,2.83,2.42,3.86,3.86,0,0,1,3.7-.47A11.78,11.78,0,0,0,51.72,90.45ZM34.88,78.82a11.92,11.92,0,0,0-.42-4,3.87,3.87,0,0,1,.87,3.63,3.88,3.88,0,0,1,3.27,1.79A12,12,0,0,0,34.88,78.82Zm-6.79-19.3a12.18,12.18,0,0,0,2-3.46,3.87,3.87,0,0,1-1.43,3.44,3.88,3.88,0,0,1,1.6,3.37A12,12,0,0,0,28.09,59.52Zm5.85-19.61a12.27,12.27,0,0,0,3.65-1.63,3.91,3.91,0,0,1-3.19,1.95,3.83,3.83,0,0,1-.69,3.66A11.87,11.87,0,0,0,33.94,39.91ZM50.2,27.48a12.19,12.19,0,0,0,3.91.83,3.88,3.88,0,0,1-3.72-.3,3.88,3.88,0,0,1-2.72,2.56A12,12,0,0,0,50.2,27.48ZM70.66,27a12,12,0,0,0,2.67,3,3.85,3.85,0,0,1-2.83-2.42,3.86,3.86,0,0,1-3.7.47A12,12,0,0,0,70.66,27ZM87.5,38.61a11.92,11.92,0,0,0,.42,4A3.87,3.87,0,0,1,87.05,39a3.82,3.82,0,0,1-3.27-1.79A12,12,0,0,0,87.5,38.61Zm1.12,21.12c2.66,1.7,1.32,1.42,2.48,2.93C90,61.74,87.66,59.08,88.62,59.73ZM84,43.42c3.15-.2,1.9.36,3.73.91C86.26,44.25,82.82,43.45,84,43.42ZM70.63,32.94c2.44-2,1.76-.82,3.56-1.45C73,32.28,69.72,33.65,70.63,32.94Zm-16.95-.63c.79-3.05.94-1.69,2-3.26C55.17,30.41,53.36,33.43,53.68,32.31ZM39.6,41.77c-1.16-2.94-.24-1.92-.28-3.83C39.68,39.35,40,42.86,39.6,41.77ZM33.76,57.7c-2.66-1.7-1.32-1.42-2.48-2.93C32.41,55.69,34.72,58.35,33.76,57.7ZM38.4,74c-3.15.2-1.9-.36-3.73-.91C36.12,73.18,39.56,74,38.4,74ZM51.75,84.49c-2.44,2-1.76.82-3.56,1.45C49.41,85.15,52.66,83.78,51.75,84.49Zm17,.63c-.79,3-.94,1.69-2,3.26C67.2,87,69,84,68.7,85.12Zm14.08-9.46c1.16,2.94.24,1.92.28,3.83C82.7,78.08,82.39,74.57,82.78,75.66Zm5.59-3.86c-1.8.64-.52,1.14-3.68,1.09C83.53,72.92,86.92,72,88.37,71.8Zm2.5-18.47c-1.08,1.57.24,1.22-2.33,3C87.61,57.07,89.79,54.3,90.87,53.33ZM82,36.91c0,1.91.92.85-.09,3.84C81.6,41.85,81.73,38.33,82,36.91ZM65.24,28.82c1.16,1.52,1.24.15,2.17,3.16C67.79,33.08,65.83,30.15,65.24,28.82ZM46.89,32.15c1.83.55,1.09-.61,3.62,1.28C51.46,34.09,48.15,32.88,46.89,32.15ZM34,45.63c1.8-.64.52-1.14,3.68-1.09C38.85,44.52,35.45,45.47,34,45.63Zm-2.5,18.48c1.08-1.58-.25-1.23,2.33-3C34.77,60.36,32.59,63.13,31.51,64.11Zm8.84,16.41c-.05-1.91-.92-.85.09-3.84C40.78,75.58,40.64,79.1,40.35,80.52Zm16.79,8.09C56,87.09,55.9,88.46,55,85.45,54.59,84.35,56.55,87.28,57.14,88.61Zm18.35-3.33c-1.83-.55-1.1.61-3.62-1.28C70.92,83.34,74.23,84.55,75.49,85.28Zm15-22.49a4.09,4.09,0,0,1-2.3-3.19,9.34,9.34,0,0,0,1.39,1.95C90.48,62.63,92.43,63.64,90.52,62.79Zm-3.21-18a4.06,4.06,0,0,1-3.73-1.22,10,10,0,0,0,2.27.75C87.18,44.67,89.36,44.34,87.31,44.77ZM74.12,32.08a4.06,4.06,0,0,1-3.74,1.2,8.54,8.54,0,0,0,2.28-.72C74,32.07,75.53,30.52,74.12,32.08ZM56,29.56a4.08,4.08,0,0,1-2.32,3.18,11.4,11.4,0,0,0,1.42-1.93C55.86,29.65,56.22,27.48,56,29.56ZM39.85,38.18a4.07,4.07,0,0,1,0,3.93,9.34,9.34,0,0,0,0-2.39C39.79,38.33,38.81,36.37,39.85,38.18Zm-8,16.47a4.06,4.06,0,0,1,2.3,3.18,10.1,10.1,0,0,0-1.4-1.95C31.9,54.8,30,53.79,31.86,54.65Zm3.21,18a4.05,4.05,0,0,1,3.73,1.23,8.53,8.53,0,0,0-2.27-.76C35.19,72.77,33,73.09,35.07,72.66Zm13.18,12.7A4.07,4.07,0,0,1,52,84.15a8.48,8.48,0,0,0-2.29.72C48.42,85.36,46.85,86.91,48.25,85.36Zm18.13,2.51a4.09,4.09,0,0,1,2.32-3.18,9.78,9.78,0,0,0-1.42,1.93C66.52,87.78,66.16,90,66.38,87.87Zm16.15-8.62a4.07,4.07,0,0,1,0-3.93,11.42,11.42,0,0,0,0,2.39C82.58,79.1,83.57,81.06,82.53,79.25Zm4-7.32a9.3,9.3,0,0,0-2.24.86A4.06,4.06,0,0,1,88,71.39C90,71.72,87.83,71.49,86.52,71.93Zm2.92-17.42a9.89,9.89,0,0,0-1.3,2,4.08,4.08,0,0,1,2.15-3.3C92.16,52.29,90.25,53.39,89.44,54.51Zm-7.86-15.8a8.58,8.58,0,0,0,.13,2.39,4.08,4.08,0,0,1-.2-3.93C82.46,35.31,81.57,37.32,81.58,38.71ZM65.93,30.55a9.45,9.45,0,0,0,1.5,1.85A4,4,0,0,1,65,29.34C64.64,27.28,65.11,29.43,65.93,30.55ZM48.46,33.14a9.39,9.39,0,0,0,2.32.62,4.09,4.09,0,0,1-3.8-1C45.5,31.25,47.15,32.72,48.46,33.14ZM35.86,45.51a9.4,9.4,0,0,0,2.24-.87A4.06,4.06,0,0,1,34.42,46C32.36,45.71,34.55,45.94,35.86,45.51ZM32.93,62.92a10.2,10.2,0,0,0,1.31-2,4.1,4.1,0,0,1-2.15,3.29C30.22,65.15,32.12,64,32.93,62.92Zm7.87,15.8a9.35,9.35,0,0,0-.13-2.39,4.08,4.08,0,0,1,.2,3.93C39.92,82.12,40.8,80.11,40.8,78.72Zm15.65,8.17A8.45,8.45,0,0,0,54.94,85a4.06,4.06,0,0,1,2.47,3.06C57.73,90.15,57.27,88,56.45,86.89Zm17.47-2.6a10.49,10.49,0,0,0-2.32-.62,4.09,4.09,0,0,1,3.8,1C76.87,86.18,75.23,84.71,73.92,84.29Zm20-15.82c.08-1.9.49-5.07.65-3.65.08.81.49,1.92,0,2.81-.19.4-.32.69-.41.91s-.1.56-.16,1c-.08,1-1,1.72-1.54,2.35C91.5,73,92.89,70.09,93.87,68.47Zm-12,17.35c1.17-1.49,3.37-3.82,2.66-2.57-.41.69-.73,1.84-1.64,2.28-.38.2-.66.37-.87.49l-.7.7c-.66.77-1.85.78-2.63,1C77.33,88.07,80.15,86.56,81.9,85.82ZM62,92.81c1.83-.51,5-1.1,3.67-.51-.74.32-1.67,1.06-2.67.88-.43-.06-.75-.09-1-.11s-.56.08-1,.16c-1,.23-2-.47-2.71-.75C57,92,60.16,92.39,62,92.81Zm-20.2-6c1.78.66,4.67,2,3.27,1.75-.79-.18-2-.13-2.68-.86-.31-.3-.55-.52-.73-.68l-.89-.45c-.93-.39-1.31-1.52-1.75-2.19C38.26,83.14,40.57,85.35,41.81,86.78ZM29,70c1.05,1.57,2.58,4.38,1.61,3.33-.53-.61-1.52-1.27-1.65-2.27-.08-.43-.15-.74-.21-1s-.25-.5-.45-.89c-.52-.86-.16-2-.13-2.8C28.28,65,28.85,68.15,29,70ZM28.51,49c-.08,1.9-.49,5.07-.65,3.65-.08-.8-.49-1.92,0-2.81.19-.39.32-.69.41-.91s.1-.56.16-1c.08-1,1-1.72,1.54-2.35C30.87,44.45,29.48,47.34,28.51,49Zm12-17.34c-1.17,1.49-3.38,3.81-2.67,2.56.41-.69.74-1.84,1.65-2.28.38-.2.66-.36.87-.49l.7-.7c.66-.77,1.85-.78,2.63-1C45.05,29.36,42.23,30.87,40.48,31.62Zm19.89-7c-1.83.51-5,1.1-3.67.51.74-.32,1.67-1.06,2.67-.88.43.06.75.09,1,.11l1-.15c1-.23,2,.46,2.71.74C65.38,25.48,62.21,25.05,60.37,24.62Zm20.19,6c-1.78-.66-4.67-2-3.26-1.75.78.18,2,.13,2.67.87l.74.67.89.45c.93.39,1.31,1.52,1.75,2.19C84.12,34.29,81.81,32.08,80.56,30.65ZM93.36,47.4c-1-1.58-2.58-4.39-1.62-3.33.54.6,1.53,1.26,1.66,2.27.08.42.15.74.2,1s.25.5.46.89c.52.86.16,2,.13,2.8C94.1,52.43,93.53,49.29,93.36,47.4Zm.11,20.95a4.28,4.28,0,0,1,1-4.6,12.57,12.57,0,0,0-.84,4.65,12.74,12.74,0,0,0-1.85,4.35A4.28,4.28,0,0,1,93.47,68.35ZM81.65,85.49a4.25,4.25,0,0,1,3.51-3.14,12.92,12.92,0,0,0-3.41,3.27,12.68,12.68,0,0,0-4,2.43A4.26,4.26,0,0,1,81.65,85.49ZM62,92.4a4.27,4.27,0,0,1,4.69-.47,12.72,12.72,0,0,0-4.68.64,12.79,12.79,0,0,0-4.71-.42A4.25,4.25,0,0,1,62,92.4Zm-20-6a4.28,4.28,0,0,1,4.07,2.38A12.92,12.92,0,0,0,42,86.58a12.82,12.82,0,0,0-3.56-3.1A4.27,4.27,0,0,1,42.05,86.44ZM29.41,69.9a4.27,4.27,0,0,1,1.89,4.31A13,13,0,0,0,29.25,70a13,13,0,0,0-1.06-4.6A4.27,4.27,0,0,1,29.41,69.9ZM28.9,49.08a4.25,4.25,0,0,1-1,4.6A12.57,12.57,0,0,0,28.74,49a12.74,12.74,0,0,0,1.85-4.35A4.27,4.27,0,0,1,28.9,49.08ZM40.73,31.94a4.27,4.27,0,0,1-3.51,3.14,12.92,12.92,0,0,0,3.41-3.27,12.79,12.79,0,0,0,4-2.43A4.26,4.26,0,0,1,40.73,31.94ZM60.38,25a4.27,4.27,0,0,1-4.69.47,12.74,12.74,0,0,0,4.68-.64,12.77,12.77,0,0,0,4.71.42A4.25,4.25,0,0,1,60.38,25Zm19.95,6a4.27,4.27,0,0,1-4.07-2.38,12.73,12.73,0,0,0,4.17,2.24A12.68,12.68,0,0,0,84,34,4.27,4.27,0,0,1,80.33,31ZM93,47.53a4.28,4.28,0,0,1-1.9-4.31,13,13,0,0,0,2.06,4.26,13,13,0,0,0,1.06,4.6A4.27,4.27,0,0,1,93,47.53ZM88,63.86c2.6,1,1.62.53,3.24,2.46C92.39,67.69,86.72,63.3,88,63.86ZM85.94,47.1c2.69-.72,1.62-.53,4.06.08C91.71,47.64,84.54,47.42,85.94,47.1ZM74.38,34.77c1.76-2.16,1-1.38,3.34-2.32C79.37,31.82,73.44,35.85,74.38,34.77ZM57.79,31.59c.14-2.78,0-1.7,1.33-3.84C60.08,26.27,57.66,33,57.79,31.59Zm-15.3,7.18c-1.51-2.34-1-1.38-1.17-3.89C41.22,33.11,43.23,40,42.49,38.77Zm-8.15,14.8c-2.6-1-1.62-.53-3.24-2.46C30,49.74,35.66,54.13,34.34,53.57Zm2.1,16.77c-2.69.71-1.62.52-4.06-.09C30.67,69.79,37.84,70,36.44,70.34ZM48,82.66C46.24,84.82,47,84,44.66,85,43,85.62,48.94,81.58,48,82.66Zm16.59,3.18c-.15,2.78,0,1.7-1.33,3.84C62.29,91.16,64.72,84.42,64.59,85.84Zm15.3-7.18c1.51,2.34,1,1.38,1.17,3.89C81.16,84.32,79.15,77.43,79.89,78.66Zm10.64-9.82c-2.42.73-1.34.87-4.06.29C85.06,68.87,92.21,68.31,90.53,68.84Zm.35-19.17c-1.53,2-.57,1.48-3.12,2.61C86.47,52.9,91.92,48.24,90.88,49.67Zm-11-15.73c-.06,2.52.41,1.54-1,4C78.22,39.15,79.9,32.18,79.89,33.94ZM61.76,27.68c1.43,2.08,1.24,1,1.52,3.78C63.47,32.87,60.73,26.25,61.76,27.68Zm-18.35,5.6c2.38.83,1.59.08,3.45,2.15C47.85,36.47,41.73,32.72,43.41,33.28ZM31.85,48.59c2.42-.73,1.34-.87,4.06-.29C37.32,48.56,30.17,49.12,31.85,48.59ZM31.5,67.76c1.53-2,.57-1.48,3.12-2.61C35.91,64.53,30.46,69.19,31.5,67.76Zm11,15.73c.06-2.52-.41-1.54,1-3.95C44.15,78.28,42.48,85.25,42.49,83.49Zm18.13,6.26c-1.44-2.07-1.24-1-1.52-3.78C58.91,84.56,61.65,91.18,60.62,89.75ZM79,84.15c-2.38-.83-1.59-.08-3.45-2.15C74.53,81,80.65,84.71,79,84.15ZM87.54,63.8A12.82,12.82,0,0,0,92,67.12,4.81,4.81,0,0,1,87.54,63.8ZM85.49,47.34a12.83,12.83,0,0,0,5.58,0A4.82,4.82,0,0,1,85.49,47.34ZM74.16,35.23A12.89,12.89,0,0,0,78.71,32,4.83,4.83,0,0,1,74.16,35.23ZM57.88,32.09a12.69,12.69,0,0,0,1.77-5.3A4.82,4.82,0,0,1,57.88,32.09Zm-15,7a12.73,12.73,0,0,0-1.68-5.33A4.83,4.83,0,0,1,42.86,39.12Zm-8,14.51a12.82,12.82,0,0,0-4.48-3.32A4.81,4.81,0,0,1,34.84,53.63Zm2,16.46a12.83,12.83,0,0,0-5.58,0A4.82,4.82,0,0,1,36.89,70.09ZM48.21,82.2a12.94,12.94,0,0,0-4.54,3.24A4.82,4.82,0,0,1,48.21,82.2ZM64.5,85.34a12.73,12.73,0,0,0-1.77,5.3A4.82,4.82,0,0,1,64.5,85.34Zm15-7a12.73,12.73,0,0,0,1.68,5.33A4.83,4.83,0,0,1,79.52,78.31Zm12.06-9.72A12.78,12.78,0,0,0,86,68.9,4.81,4.81,0,0,1,91.58,68.59Zm0-19.76a12.78,12.78,0,0,0-4.32,3.54A4.82,4.82,0,0,1,91.58,48.83ZM80,32.86a12.64,12.64,0,0,0-1.42,5.39A4.81,4.81,0,0,1,80,32.86Zm-18.79-6.1a12.75,12.75,0,0,0,2,5.2A4.83,4.83,0,0,1,61.18,26.76ZM42.4,32.86a12.64,12.64,0,0,0,4.69,3A4.82,4.82,0,0,1,42.4,32.86Zm-11.61,16a13,13,0,0,0,5.58-.32A4.84,4.84,0,0,1,30.79,48.85Zm0,19.75a12.78,12.78,0,0,0,4.32-3.54A4.82,4.82,0,0,1,30.8,68.6Zm11.61,16a12.64,12.64,0,0,0,1.42-5.39A4.81,4.81,0,0,1,42.41,84.57Zm18.79,6.1a12.9,12.9,0,0,0-2-5.2A4.83,4.83,0,0,1,61.2,90.67ZM80,84.57a12.6,12.6,0,0,0-4.7-3A4.82,4.82,0,0,1,80,84.57ZM97.29,69.49c-.14-.57-.14-.84.15-.36.09.16.21.33.33.5l-.55.24C96.71,70.12,96.86,69.89,97.29,69.49ZM84.06,88.65c.23-.54.39-.76.34-.2a5.6,5.6,0,0,0,0,.6l-.59-.13C83.23,88.82,83.48,88.72,84.06,88.65Zm-22,7.73c.5-.31.76-.39.39,0-.13.14-.25.3-.38.47-.13-.16-.27-.32-.4-.45C61.32,96,61.58,96.1,62.1,96.38ZM39.79,89.72c.59,0,.84.13.29.25l-.58.16c0-.21,0-.41,0-.6C39.37,89,39.54,89.19,39.79,89.72ZM25.65,71.22c.45.38.61.6.09.38-.17-.08-.36-.14-.56-.21.11-.18.22-.36.3-.52C25.75,70.37,25.76,70.64,25.65,71.22Zm-.56-23.28c.14.58.14.85-.15.36-.1-.16-.21-.33-.33-.5l.55-.24C25.67,47.31,25.52,47.54,25.09,47.94ZM38.32,28.78c-.23.54-.39.76-.34.2a5.47,5.47,0,0,0,0-.6c.21.05.4.1.59.13C39.15,28.61,38.9,28.71,38.32,28.78Zm22-7.73c-.5.31-.76.4-.39,0,.13-.14.25-.3.38-.47.13.16.26.32.39.45C61.06,21.41,60.8,21.34,60.28,21.05Zm22.31,6.66c-.59-.05-.84-.13-.29-.25.18,0,.37-.1.57-.16,0,.21,0,.41.06.6C83,28.46,82.84,28.24,82.59,27.71Zm14.14,18.5c-.45-.38-.61-.6-.09-.38a6,6,0,0,0,.56.22,5.61,5.61,0,0,0-.3.51C96.63,47.06,96.62,46.79,96.73,46.21Zm0,23.11A5.79,5.79,0,0,1,97,68.17a12.41,12.41,0,0,0,.15,1.26,10.11,10.11,0,0,0-.82,1A6.5,6.5,0,0,1,96.73,69.32Zm-13,18.86a6.14,6.14,0,0,1,.86-.8,10.41,10.41,0,0,0-.63,1.11,12.31,12.31,0,0,0-1.23.31A6.48,6.48,0,0,1,83.71,88.18ZM62.09,95.79a5.76,5.76,0,0,1,1.16-.14,12.35,12.35,0,0,0-1.16.53,9.69,9.69,0,0,0-1.18-.48A7.17,7.17,0,0,1,62.09,95.79Zm-22-6.55a6.33,6.33,0,0,1,1,.57,9.59,9.59,0,0,0-1.25-.26,10.45,10.45,0,0,0-.67-1.07A6.91,6.91,0,0,1,40.12,89.24ZM26.21,71a6.63,6.63,0,0,1,.49,1.07c-.28-.34-.57-.65-.86-.94a12.65,12.65,0,0,0,.09-1.27A7.24,7.24,0,0,1,26.21,71Zm-.56-22.91a6.61,6.61,0,0,1-.22,1.15A12.41,12.41,0,0,0,25.28,48a10.11,10.11,0,0,0,.82-1A6.5,6.5,0,0,1,25.65,48.11Zm13-18.86a6.1,6.1,0,0,1-.86.8,10.41,10.41,0,0,0,.63-1.11,12.31,12.31,0,0,0,1.23-.31A6.48,6.48,0,0,1,38.67,29.25Zm21.62-7.61a5.85,5.85,0,0,1-1.16.14,11.08,11.08,0,0,0,1.15-.52,12.61,12.61,0,0,0,1.18.47A7.13,7.13,0,0,1,60.29,21.64Zm22,6.56a6.34,6.34,0,0,1-1-.58,9.59,9.59,0,0,0,1.25.26A10.45,10.45,0,0,0,83.15,29,6.26,6.26,0,0,1,82.26,28.2ZM96.17,46.41a6.26,6.26,0,0,1-.49-1.07,9.69,9.69,0,0,0,.86.94,12.65,12.65,0,0,0-.09,1.27A7.24,7.24,0,0,1,96.17,46.41ZM80.25,63.84c-.47.14-.32.26-.52-.46C80.29,63.22,80.14,63.11,80.25,63.84Zm-.62-12.18c-.31.39-.12.4-.7-.06C79.29,51.13,79.11,51.13,79.63,51.66ZM72,42.17c0,.5.14.39-.6.36C71.38,41.94,71.22,42,72,42.17ZM60.18,39c.28.41.34.23-.28.64C59.57,39.16,59.51,39.33,60.18,39Zm-11.4,4.36c.47.17.42,0,.16.68C48.39,43.84,48.44,44,48.78,43.36ZM42.12,53.59c.48-.14.33-.26.53.46C42.09,54.21,42.23,54.32,42.12,53.59Zm.63,12.18c.3-.39.11-.4.7.06C43.09,66.3,43.27,66.3,42.75,65.77Zm7.67,9.49c0-.5-.14-.39.6-.36C51,75.49,51.16,75.39,50.42,75.26ZM62.2,78.43c-.28-.41-.34-.23.28-.64C62.81,78.27,62.87,78.1,62.2,78.43Zm11.4-4.36c-.47-.17-.42,0-.16-.68C74,73.59,73.94,73.41,73.6,74.07ZM79.25,65c.56-.49.37-.48.7-.1C79.45,65.43,79.63,65.41,79.25,65Zm.23-11.81c.17-.73,0-.61.5-.49C79.91,53.41,80.05,53.29,79.48,53.16Zm-6.76-9.69c-.29-.69-.34-.5.12-.69C73.22,43.42,73.26,43.24,72.72,43.47ZM61.55,39.6c-.63-.38-.56-.2-.3-.63C61.93,39.27,61.86,39.1,61.55,39.6ZM50.25,43c-.74.06-.58.16-.62-.33C50.36,42.55,50.2,42.46,50.25,43Zm-7.12,9.42c-.57.49-.38.48-.7.1C42.93,52,42.74,52,43.13,52.46ZM42.9,64.27c-.17.73,0,.61-.51.49C42.47,64,42.33,64.14,42.9,64.27ZM49.66,74c.29.69.34.5-.12.69C49.16,74,49.12,74.19,49.66,74Zm11.16,3.87c.64.38.57.2.31.63C60.45,78.16,60.52,78.33,60.82,77.83Zm11.31-3.44c.74-.06.58-.16.62.33C72,74.88,72.18,75,72.13,74.39ZM80,64.33l0-.13c.36-.1.33-.19.39.23-.28.32-.21.26-.45,0Zm-6.89,10,.05-.12c.35.12.38,0,.18.41-.41.1-.32.09-.35-.28Zm-11.44,4,.11-.07c.21.31.28.26-.1.45-.39-.17-.31-.12-.12-.44ZM50,74.87h.13c0,.37.08.37-.34.3-.22-.36-.18-.28.16-.42Zm-7.36-9.64.1.08c-.23.29-.16.35-.45,0,0-.42,0-.33.37-.25C42.69,65.15,42.69,65.19,42.68,65.23Zm-.3-12.13s0,.08,0,.13c-.36.1-.33.19-.39-.23.28-.32.21-.26.45,0Zm6.89-10,0,.12c-.35-.12-.38,0-.18-.41.41-.1.32-.09.35.28Zm11.45-4-.11.07c-.21-.31-.28-.26.1-.45.38.17.31.13.12.44Zm11.62,3.46h-.13c0-.37-.08-.37.34-.3.21.36.18.28-.16.42A.61.61,0,0,1,72.34,42.56ZM79.7,52.2l-.1-.08c.23-.29.16-.35.45,0,0,.42,0,.33-.38.25ZM78.25,63.81c.42-.14.41-.19.49.14C78.5,64.18,78.53,64.15,78.25,63.81Zm-6.25,9c.42.14.44.1.31.41C72,73.31,72,73.31,72,72.86ZM61.62,76.51c.26.37.3.34,0,.52C61.34,76.86,61.38,76.89,61.62,76.51ZM51.08,73.37c0,.44,0,.45-.3.42C50.64,73.48,50.66,73.53,51.08,73.37Zm-6.69-8.75c-.26.36-.22.39-.48.17C44,64.46,44,64.51,44.39,64.62Zm-.26-11c-.43.14-.41.19-.49-.14C43.88,53.25,43.85,53.28,44.13,53.62Zm6.25-9c-.42-.14-.44-.1-.31-.41C50.4,44.12,50.35,44.13,50.38,44.57Zm10.38-3.65c-.26-.37-.3-.34,0-.52C61,40.57,61,40.54,60.76,40.92ZM71.3,44.06c0-.44,0-.45.29-.42C71.74,44,71.72,43.9,71.3,44.06ZM78,52.81c.27-.36.23-.39.49-.17C78.4,53,78.41,52.92,78,52.81ZM79,64c0-.08-.05-.22-.1-.41.71-.2.51-.31.73.4l-.32.1.21.27c-.57.48-.35.49-.83-.07C78.85,64.19,78.94,64.09,79,64Zm-6.53,9.46.16-.39c.69.25.6.05.36.75l-.32-.1c0,.08,0,.19,0,.33-.74.06-.57.2-.63-.54C72.26,73.53,72.39,73.5,72.48,73.49ZM61.64,77.31l.36-.23c.41.61.46.4-.16.82-.08-.12-.14-.21-.19-.27l-.19.28c-.63-.39-.58-.18-.19-.81ZM50.62,74l.43,0c0,.74.14.59-.61.57,0-.14,0-.25,0-.34l-.31.12c-.28-.68-.36-.48.32-.77C50.52,73.82,50.59,73.94,50.62,74Zm-7-9.13.32.27c-.45.58-.23.56-.82.11.08-.12.15-.21.19-.28L43,64.91c.18-.73,0-.61.71-.44A2.86,2.86,0,0,0,43.65,64.89ZM43.37,53.4c0,.09.05.22.1.41-.71.21-.52.31-.73-.4l.32-.1L42.85,53c.57-.48.35-.49.83.07C43.53,53.24,43.44,53.34,43.37,53.4Zm6.53-9.46c0,.08-.09.21-.16.39-.7-.25-.6,0-.36-.75l.32.1c0-.08,0-.19,0-.33.74-.06.57-.2.63.54Zm10.84-3.82-.36.23c-.41-.61-.46-.4.15-.82a3.17,3.17,0,0,0,.2.27l.19-.28c.63.39.58.18.19.81Zm11,3.29-.42,0c0-.74-.14-.59.61-.57a1.91,1.91,0,0,0,0,.34l.31-.12c.28.69.36.48-.32.77C71.85,43.61,71.79,43.49,71.75,43.41Zm7,9.13-.32-.27c.45-.58.23-.56.82-.11l-.2.28.33.08c-.18.73,0,.61-.71.44C78.69,52.77,78.71,52.63,78.73,52.54Zm.1,10.83c-.08-.28-.16-.24.35-.35.2-.05.15-.05.22.19ZM78.2,52.11c-.23-.18-.27-.1.07-.49.14-.15.1-.13.29,0Zm-7.13-8.74c-.29,0-.28.08-.23-.43,0-.21,0-.16.25-.16ZM60.16,40.5c-.23.16-.17.22-.44-.22-.1-.18-.09-.14.12-.27ZM49.65,44.58c-.1.27,0,.29-.48.08-.19-.08-.16,0-.07-.28Zm-6.1,9.48c.08.28.15.24-.35.36-.2,0-.15,0-.22-.2Zm.63,11.26c.23.18.27.1-.07.49-.14.15-.1.13-.3,0Zm7.13,8.74c.29,0,.28-.08.23.43,0,.21,0,.17-.25.16Zm10.9,2.87c.24-.16.18-.22.45.22.1.18.09.14-.12.27Zm10.52-4.08c.09-.27,0-.29.48-.08.19.08.16,0,.07.29Zm6.16-7.91c-.19.16-.15.18-.3,0-.36-.37-.31-.29-.09-.48Zm.27-11.59c0,.24,0,.23-.21.2-.51-.09-.43-.06-.36-.34Zm-6.59-9.54c.1.22.13.2,0,.29-.46.22-.38.2-.49-.06ZM61.64,40c.21.13.22.09.13.27-.25.46-.19.39-.44.24ZM50.53,43.28c.24,0,.23-.06.26.14.07.51.08.43-.21.45Zm-7,9.21c.19-.16.15-.18.3,0,.35.37.31.29.09.48Zm-.27,11.59c.05-.24,0-.23.21-.2.51.09.43.06.36.34Zm6.58,9.54c-.09-.22-.13-.2.06-.29.46-.22.38-.2.49.06Zm10.94,3.85c-.21-.13-.22-.09-.13-.27.25-.45.19-.39.44-.24Zm11.11-3.32c-.25,0-.23.06-.26-.14-.07-.51-.08-.43.21-.45Zm6.73-10.71c-.9.26-.71.05-.06-.21ZM78,52.32c-.58.74-.55.45-.18-.14Zm-7-8.68c0,.93-.17.68-.23,0ZM60.31,40.71c.52.78.26.66-.18.13Zm-10.41,4c.88.32.6.38-.08.21ZM43.8,54c.9-.26.7-.05.06.21Zm.54,11.12c.58-.74.54-.45.18.14Zm7,8.69c0-.94.17-.69.22,0Zm10.75,2.92c-.53-.78-.26-.66.18-.13Zm10.41-4c-.88-.32-.6-.38.08-.21Zm5.68-8.32c-.4-.57-.45-.86.17-.15Zm.12-11.07c-.66-.23-.86-.43,0-.22Zm-6.41-9c-.66.2-1,.16-.08-.21ZM61.39,40.81c-.42.55-.68.69-.19-.12Zm-10.56,3.3c0,.7-.15,1-.23,0ZM44.22,53c.4.57.45.86-.17.15ZM44.1,64.06c.65.23.86.43-.05.22Zm6.4,9c.67-.19,1-.15.09.21ZM61,76.62c.42-.55.68-.69.19.12Zm10.56-3.3c0-.7.15-1,.23,0Zm6.19-9.67h0v0h0Zm-6.07,8.79h0ZM61.61,76h0Zm-10.23-3h0ZM44.9,64.45h0Zm-.26-10.67h0v0h0ZM50.7,45h0Zm10.07-3.54h0ZM71,44.5h0ZM77.48,53h0Zm2.64,10c0,.31-1.21,0,0,0ZM79,51c.22.23-1,.73,0,0Zm-7.93-9c.31.06-.36,1.16,0,0ZM59.35,39.4c.29-.14.39,1.15,0,0Zm-11,4.77c.16-.28,1,.7,0,0Zm-6.1,10.32c0-.31,1.22,0,0,0Zm1.14,11.94c-.22-.23,1-.73,0,0Zm7.93,9c-.31-.06.36-1.16,0,0ZM63,78c-.28.14-.39-1.15,0,0Zm11-4.77c-.16.28-1-.7,0,0Zm5.31-7.7c-1-.68.21-.24,0,0Zm.56-12c-1.22.05,0-.32,0,0Zm-6.59-10c-1,.74-.17-.28,0,0ZM62.09,39.34c-.33,1.16-.3-.13,0,0ZM50.53,42.51c.41,1.14-.31.07,0,0ZM43,51.87c1,.68-.21.24,0,0Zm-.56,12c1.21-.05,0,.32,0,0Zm6.59,10c1-.74.17.28,0,0Zm11.22,4.23c.33-1.16.29.13,0,0Zm11.56-3.17c-.41-1.14.31-.07,0,0Zm2.62-12.24a7.38,7.38,0,0,1,5.31-2.48c.1.84.2,1.67.31,2.47a4.47,4.47,0,0,0-2.92.81,4.49,4.49,0,0,0,2,2.29l-1.61,1.89A7.38,7.38,0,0,1,74.47,62.68Zm-4.86,7.05a7.37,7.37,0,0,1,5.75,1.11c-.42.74-.82,1.47-1.2,2.18A4.48,4.48,0,0,0,71.31,72a4.51,4.51,0,0,0,.28,3l-2.42.58A7.35,7.35,0,0,1,69.61,69.73Zm-8.09,2.84a7.35,7.35,0,0,1,4,4.28l-2.25,1.06a4.4,4.4,0,0,0-1.68-2.52A4.44,4.44,0,0,0,60,78L57.74,77A7.4,7.4,0,0,1,61.52,72.57Zm-8.2-2.45A7.36,7.36,0,0,1,54,75.93l-2.44-.46a4.49,4.49,0,0,0,.13-3,4.43,4.43,0,0,0-2.79,1.19l-1.3-2.12A7.37,7.37,0,0,1,53.32,70.12Zm-5.21-6.8a7.34,7.34,0,0,1-2.83,5.12l-1.7-1.81a4.49,4.49,0,0,0,1.88-2.38,4.47,4.47,0,0,0-3-.67c.07-.81.13-1.64.2-2.48A7.29,7.29,0,0,1,48.11,63.32Zm-.2-8.57a7.35,7.35,0,0,1-5.31,2.48c-.1-.84-.2-1.67-.31-2.47A4.47,4.47,0,0,0,45.21,54a4.46,4.46,0,0,0-2-2.29c.53-.6,1.07-1.24,1.62-1.89A7.38,7.38,0,0,1,47.91,54.75Zm4.86-7A7.33,7.33,0,0,1,47,46.59c.42-.74.82-1.47,1.2-2.18a4.47,4.47,0,0,0,2.84,1.06,4.41,4.41,0,0,0-.27-3l2.42-.59A7.35,7.35,0,0,1,52.77,47.7Zm8.08-2.84a7.37,7.37,0,0,1-4-4.28l2.25-1.06a4.46,4.46,0,0,0,1.68,2.53,4.49,4.49,0,0,0,1.55-2.61l2.3,1A7.38,7.38,0,0,1,60.85,44.86Zm8.21,2.45a7.36,7.36,0,0,1-.72-5.81l2.45.46a4.49,4.49,0,0,0-.13,3,4.43,4.43,0,0,0,2.79-1.19c.42.69.85,1.4,1.3,2.12A7.38,7.38,0,0,1,69.06,47.31Zm5.2,6.8A7.39,7.39,0,0,1,77.1,49l1.7,1.81a4.45,4.45,0,0,0-1.88,2.38,4.41,4.41,0,0,0,3,.67c-.07.81-.13,1.64-.2,2.49A7.38,7.38,0,0,1,74.26,54.11Zm5.34,4.16a6,6,0,0,1,0,1.53,7.47,7.47,0,0,0-4.9,1.79,22.51,22.51,0,0,0-1.82-3.16,22.47,22.47,0,0,0,1.66-3.24,7.51,7.51,0,0,0,5,1.55A6.75,6.75,0,0,1,79.6,58.27ZM76.34,69.18a6,6,0,0,1-.86,1.26,7.48,7.48,0,0,0-5-1.44,22,22,0,0,0,.39-3.62,21.88,21.88,0,0,0,3.24-1.64,7.54,7.54,0,0,0,3.13,4.18A6.49,6.49,0,0,1,76.34,69.18Zm-9,6.91a6.2,6.2,0,0,1-1.44.51,7.47,7.47,0,0,0-3.21-4.11,22.29,22.29,0,0,0,2.43-2.71,21.78,21.78,0,0,0,3.6.58,7.59,7.59,0,0,0,.06,5.23A6.08,6.08,0,0,1,67.3,76.09Zm-11.38.27a5.7,5.7,0,0,1-1.46-.43,7.5,7.5,0,0,0-.19-5.22A22.52,22.52,0,0,0,57.83,70a23.19,23.19,0,0,0,2.57,2.58,7.56,7.56,0,0,0-3,4.27A6.79,6.79,0,0,1,55.92,76.36ZM46.56,69.9a7.1,7.1,0,0,1-.94-1.21,7.54,7.54,0,0,0,2.92-4.33,22.51,22.51,0,0,0,3.33,1.48,22.06,22.06,0,0,0,.55,3.6,7.49,7.49,0,0,0-4.94,1.67A5.64,5.64,0,0,1,46.56,69.9ZM42.78,59.16a7,7,0,0,1-.05-1.53,7.42,7.42,0,0,0,4.91-1.79A21.43,21.43,0,0,0,49.46,59a22.47,22.47,0,0,0-1.66,3.24,7.51,7.51,0,0,0-5-1.55A6.08,6.08,0,0,1,42.78,59.16ZM46,48.25A7,7,0,0,1,46.89,47a7.52,7.52,0,0,0,5,1.44,22,22,0,0,0-.39,3.62,22.49,22.49,0,0,0-3.25,1.64,7.48,7.48,0,0,0-3.12-4.18A6.16,6.16,0,0,1,46,48.25Zm9-6.91a6,6,0,0,1,1.44-.51,7.47,7.47,0,0,0,3.21,4.11,24.08,24.08,0,0,0-2.44,2.71,21.67,21.67,0,0,0-3.59-.58,7.53,7.53,0,0,0-.07-5.23A6.51,6.51,0,0,1,55.08,41.34Zm11.37-.27a6.41,6.41,0,0,1,1.47.43,7.5,7.5,0,0,0,.19,5.22,22.64,22.64,0,0,0-3.57.75A22.27,22.27,0,0,0,62,44.89a7.5,7.5,0,0,0,3-4.27A6.62,6.62,0,0,1,66.45,41.07Zm9.37,6.46a7.1,7.1,0,0,1,.94,1.21,7.53,7.53,0,0,0-2.92,4.34,21.56,21.56,0,0,0-3.33-1.49A21.05,21.05,0,0,0,70,48a7.5,7.5,0,0,0,5-1.67A6,6,0,0,1,75.82,47.53Zm22.72,16c-.6-.94-.76-.83,3.5.93C101.44,64.87,102,64.91,98.54,63.5ZM94.22,40.64c-1-.41-1.1-.23,3.38-1.31C97.37,40,97.81,39.77,94.22,40.64Zm-16.94-16c-1.07.27-1,.45,2-3.05C79.48,22.33,79.68,21.87,77.28,24.68Zm-23.08-3c-.71.85-.56,1-.2-3.62C54.6,18.53,54.49,18,54.2,21.72ZM33.79,32.89c-.07,1.11.12,1.11-2.29-2.81C32.24,30.08,31.86,29.75,33.79,32.89Zm-9.95,21c.6.94.75.83-3.5-.93C20.94,52.57,20.43,52.52,23.84,53.93Zm4.32,22.86c1,.42,1.1.23-3.38,1.32C25,77.4,24.57,77.66,28.16,76.79Zm16.94,16c1.07-.27,1-.45-2,3C42.9,95.1,42.7,95.56,45.1,92.75Zm23.08,3c.71-.85.55-1,.2,3.62C67.78,98.9,67.89,99.39,68.18,95.71ZM88.59,84.54c.07-1.11-.12-1.11,2.29,2.81C90.14,87.35,90.52,87.68,88.59,84.54Zm9.9-8.22c-4.52-.86-4.45-.68-3.44-1.14C98.68,75.87,98.23,75.63,98.49,76.32ZM101.72,51c-4.17,2-4,2.06-3.46,1.09C101.6,50.56,101.1,50.63,101.72,51ZM89.46,28.68c-2.22,4-2,4-2.15,2.92C89.09,28.36,88.72,28.72,89.46,28.68Zm-23-10.88c.58,4.57.72,4.44,0,3.62C65.92,17.76,65.83,18.26,66.41,17.8Zm-25,4.74c3.15,3.36,3.2,3.17,2.11,2.95C40.94,22.8,41.17,23.26,41.36,22.54ZM23.89,41.11c4.52.86,4.45.68,3.44,1.14C23.7,41.56,24.15,41.8,23.89,41.11ZM20.66,66.4c4.17-2,4-2.07,3.46-1.1C20.78,66.87,21.28,66.8,20.66,66.4ZM32.92,88.75c2.21-4,2-4,2.15-2.92C33.29,89.07,33.66,88.72,32.92,88.75ZM56,99.63c-.58-4.57-.72-4.44,0-3.62C56.46,99.67,56.55,99.17,56,99.63Zm25-4.74c-3.15-3.36-3.2-3.17-2.11-3C81.44,94.63,81.21,94.17,81,94.89Zm22.55-32.35c-.11.57-11.22-5,0-.35A2,2,0,0,1,103.57,62.54ZM97.72,36.9c.25.53-12,2.57-.18-.3C97.6,36.7,97.67,36.8,97.72,36.9ZM77.92,19.6c.51.27-8.2,9.13-.32-.14A1.83,1.83,0,0,1,77.92,19.6ZM51.73,17.23c.58-.08-1.27,12.21-.34.08ZM29.16,30.71c.42-.4,6.14,10.63-.23.27A1.94,1.94,0,0,1,29.16,30.71ZM18.81,54.89c.11-.57,11.22,5,0,.35C18.79,55.12,18.79,55,18.81,54.89Zm5.85,25.64c-.25-.53,12-2.57.18.3A1.83,1.83,0,0,1,24.66,80.53ZM44.45,97.84c-.5-.28,8.21-9.14.33.13Zm26.19,2.36c-.57.08,1.28-12.21.35-.08A2.21,2.21,0,0,1,70.64,100.2ZM93.22,86.72c-.42.4-6.14-10.63.23-.27A1.94,1.94,0,0,1,93.22,86.72ZM98.57,79c-11.95-2.28.39-.84.16-.3A2.85,2.85,0,0,1,98.57,79Zm4.81-25.85c-11,5.18-.18-.91,0-.34A2,2,0,0,1,103.38,53.19ZM92.07,29.45c-5.86,10.66-.68-.63-.24-.25A1.42,1.42,0,0,1,92.07,29.45ZM69,16.89c1.52,12.07-.92-.12-.34-.07A1.86,1.86,0,0,1,69,16.89ZM42.9,20.3c8.32,8.87-.81.45-.32.15ZM23.81,38.39c12,2.28-.39.84-.16.3A1.73,1.73,0,0,1,23.81,38.39ZM19,64.24c11-5.18.18.91.05.35A2.27,2.27,0,0,1,19,64.24ZM30.3,88c5.87-10.66.69.63.25.25A2,2,0,0,1,30.3,88Zm23.1,12.57c-1.51-12.08.93.11.35.06C53.63,100.6,53.52,100.57,53.4,100.55Zm26.08-3.42c-8.33-8.87.81-.45.31-.15C79.69,97,79.58,97.08,79.48,97.13Zm24-34.27c-.2.65.49.72-5.23-1.64C98.45,60.57,97.76,60.5,103.47,62.86ZM97.83,37.22c.22.64.82.29-5.19,1.74C92.42,38.32,91.82,38.66,97.83,37.22ZM78.2,19.78c.55.4.83-.24-3.18,4.47C74.47,23.86,74.19,24.49,78.2,19.78ZM52.07,17.22c.67,0,.53-.68,0,5.48C51.44,22.71,51.59,23.39,52.07,17.22ZM29.42,30.51c.54-.41,0-.87,3.26,4.4C32.14,35.32,32.65,35.78,29.42,30.51ZM18.91,54.57c.2-.65-.49-.72,5.23,1.64C23.93,56.86,24.62,56.93,18.91,54.57Zm5.63,25.65c-.21-.65-.81-.3,5.2-1.75C30,79.11,30.56,78.77,24.54,80.22ZM44.18,97.65c-.55-.39-.83.24,3.18-4.47C47.91,93.58,48.19,92.94,44.18,97.65Zm26.13,2.56c-.67,0-.53.69,0-5.48C70.94,94.72,70.79,94,70.31,100.21ZM93,86.92c-.54.41,0,.87-3.26-4.4C90.24,82.12,89.72,81.65,93,86.92Zm.59-10c6.08,1.16,5.46.84,5.28,1.49C92.75,77.26,93.37,77.58,93.55,76.93Zm4.53-22.5c5.59-2.64,4.91-2.53,5.14-1.9C97.63,55.17,98.31,55.06,98.08,54.43ZM88.51,33.56c3-5.42,2.49-4.93,3-4.55C88.58,34.43,89.08,33.94,88.51,33.56Zm-20-11.25c-.78-6.14-.89-5.46-.21-5.48C69.07,23,69.19,22.28,68.51,22.31ZM45.71,25c-4.23-4.51-3.92-3.89-3.39-4.31C46.55,25.16,46.24,24.54,45.71,25ZM28.82,40.5c-6.07-1.16-5.46-.84-5.27-1.49C29.62,40.17,29,39.85,28.82,40.5ZM24.3,63c-5.6,2.64-4.91,2.53-5.14,1.9C24.75,62.26,24.07,62.37,24.3,63Zm9.57,20.87c-3,5.42-2.49,4.93-3,4.55C33.8,83,33.3,83.49,33.87,83.87Zm20,11.25c.78,6.14.89,5.46.21,5.48C53.3,94.47,53.19,95.15,53.87,95.12Zm22.8-2.65c4.23,4.51,3.92,3.89,3.39,4.31C75.82,92.27,76.14,92.89,76.67,92.47ZM102.22,64.3c-4.53-1.87-4.1-1.48-4.12-2.22C103.62,64.36,102.9,63.84,102.22,64.3ZM97.66,39.12c-4.76,1.15-4.18,1.21-4.63.62C98.84,38.34,98,38.35,97.66,39.12ZM79.18,21.42C76,25.15,76.5,24.86,75.8,24.65,79.67,20.11,79,20.63,79.18,21.42ZM53.82,18c-.38,4.89-.14,4.36-.83,4.6C53.45,16.62,53.18,17.46,53.82,18ZM31.28,30.08c2.57,4.18,2.45,3.61,2,4.21C30.18,29.21,30.46,30.05,31.28,30.08ZM20.16,53.13c4.53,1.87,4.1,1.48,4.11,2.22C18.76,53.07,19.48,53.59,20.16,53.13Zm4.55,25.18c4.77-1.15,4.19-1.21,4.63-.62C23.54,79.09,24.43,79.09,24.71,78.31ZM43.2,96c3.18-3.73,2.68-3.44,3.38-3.23C42.71,97.33,43.42,96.8,43.2,96Zm25.36,3.45c.37-4.89.14-4.36.83-4.6C68.93,100.82,69.2,100,68.56,99.46ZM91.1,87.35c-2.57-4.18-2.45-3.61-2-4.21C92.2,88.22,91.92,87.38,91.1,87.35Zm2.81-11.22c.42-.61-.16-.52,4.66.4C98.89,77.29,99.78,77.25,93.91,76.13Zm4-22.56c0-.74-.44-.33,4-2.41C102.61,51.58,103.3,51,97.9,53.57ZM87.86,33c-.45-.58-.54,0,1.82-4.3C90.5,28.6,90.74,27.74,87.86,33ZM67.64,22.21c-.71-.2-.45.31-1.06-4.55C67.2,17.12,66.89,16.29,67.64,22.21ZM45,25.39c-.69.25-.18.52-3.53-3.06C41.6,21.53,40.86,21,45,25.39ZM28.46,41.3c-.41.61.16.52-4.65-.4C23.49,40.15,22.6,40.19,28.46,41.3Zm-4,22.56c0,.74.43.33-4,2.42C19.77,65.85,19.08,66.4,24.48,63.86Zm10,20.6c.45.58.54,0-1.82,4.3C31.88,88.83,31.64,89.69,34.52,84.46ZM54.74,95.22c.71.2.45-.31,1.06,4.55C55.18,100.31,55.49,101.14,54.74,95.22ZM77.43,92c.69-.25.17-.52,3.53,3.06C80.78,95.9,81.51,96.39,77.43,92Zm32.21-27.93c-1.14-.44-2.9-1.43-5.15-.7C111.07,60.07,115.62,66.37,109.64,64.11ZM103.55,34.6c-1.17.32-3.18.55-4.57,2.46C102.34,30.49,109.73,32.91,103.55,34.6ZM81.29,14.31C80.52,15.25,79,16.62,79,19,77.89,11.69,85.29,9.31,81.29,14.31ZM51.35,11c-.07,1.22-.46,3.2.92,5.12C47.06,10.85,51.65,4.58,51.35,11ZM25.16,25.88c.67,1,1.51,2.85,3.76,3.59C21.63,28.3,21.65,20.53,25.16,25.88ZM12.74,53.32c1.14.44,2.9,1.43,5.15.7C11.31,57.36,6.76,51.06,12.74,53.32Zm6.09,29.51c1.17-.32,3.18-.55,4.57-2.46C20,86.94,12.65,84.52,18.83,82.83Zm22.26,20.29c.76-.94,2.25-2.31,2.25-4.68C44.48,105.74,37.09,108.12,41.09,103.12ZM71,106.46c.07-1.22.46-3.2-.93-5.12C75.31,106.58,70.73,112.85,71,106.46ZM97.21,91.55c-.66-1-1.5-2.85-3.75-3.59C100.75,89.13,100.73,96.9,97.21,91.55Zm2.77-13c1.48,1.84,3.5,2,4.69,2.24C110.92,82.14,103.66,84.92,100,78.52Zm4.23-26.59c2.28.62,4-.45,5.11-.94C115.19,48.44,111,55,104.21,51.93ZM92,27.94c2.21-.84,3-2.72,3.58-3.76C98.84,18.66,99.23,26.42,92,27.94ZM68,15.71c1.3-2,.81-4,.69-5.16C68.1,4.18,73,10.23,68,15.71ZM41.45,19.9c-.12-2.36-1.67-3.66-2.48-4.57C34.73,10.53,42.23,12.55,41.45,19.9Zm-19.05,19c-1.48-1.84-3.5-2-4.69-2.23C11.46,35.29,18.72,32.51,22.4,38.91ZM18.17,65.5c-2.28-.62-4,.45-5.11.94C7.19,69,11.43,62.48,18.17,65.5Zm12.2,24c-2.21.84-3,2.72-3.58,3.76C23.54,98.77,23.15,91,30.37,89.49Zm24,12.24c-1.29,2-.8,3.94-.68,5.15C54.28,113.25,49.39,107.2,54.34,101.73Zm26.59-4.2c.12,2.37,1.67,3.67,2.48,4.57C87.65,106.9,80.15,104.88,80.93,97.53Zm27.23-35.59A9.08,9.08,0,0,0,104.25,63C109.11,58,118.17,61.8,108.16,61.94Zm-7.07-28.23a9.38,9.38,0,0,0-2.53,3.18C99.54,30,109.1,27.72,101.09,33.71ZM78.77,15a9.42,9.42,0,0,0-.18,4.06C75.33,12.93,81.73,5.48,78.77,15Zm-29-2A9.38,9.38,0,0,0,52,16.43C45.72,13.36,46.52,3.57,49.74,13.05ZM25.08,28.5a9.44,9.44,0,0,0,3.81,1.42C22,31.12,16.91,22.73,25.08,28.5Zm-10.86,27a9.33,9.33,0,0,0,3.91-1.08C13.27,59.42,4.21,55.63,14.22,55.49Zm7.07,28.23a9.28,9.28,0,0,0,2.53-3.18C22.84,87.45,13.28,89.71,21.29,83.72ZM43.61,102.4a9.18,9.18,0,0,0,.17-4.07C47.05,104.5,40.65,112,43.61,102.4Zm29,2A9.37,9.37,0,0,0,70.4,101C76.66,104.07,75.86,113.86,72.64,104.39ZM97.3,88.93a9.54,9.54,0,0,0-3.81-1.42C100.37,86.31,105.47,94.7,97.3,88.93Zm2.27-10.22a9.23,9.23,0,0,0,2.68,3.05C110.54,87.36,100.89,85.56,99.57,78.71ZM104,52.33a9.29,9.29,0,0,0,4,.9C118,52.88,109.08,57.1,104,52.33ZM92.06,28.39a9.34,9.34,0,0,0,3.74-1.6C103.68,20.63,99,29.26,92.06,28.39ZM68.34,16a9.4,9.4,0,0,0,2.08-3.49C73.18,2.93,74.45,12.67,68.34,16ZM41.89,20a9.31,9.31,0,0,0-.37-4C38.1,6.54,44.85,13.66,41.89,20ZM22.81,38.73a9.36,9.36,0,0,0-2.68-3.06C11.84,30.07,21.49,31.87,22.81,38.73ZM18.39,65.1a9.29,9.29,0,0,0-4-.9C4.43,64.55,13.29,60.33,18.39,65.1ZM30.32,89a9.28,9.28,0,0,0-3.74,1.6C18.7,96.8,23.39,88.17,30.32,89ZM54,101.39a9.39,9.39,0,0,0-2.08,3.5C49.2,114.5,47.92,104.77,54,101.39Zm26.45-3.94a9.26,9.26,0,0,0,.37,4C84.28,110.9,77.53,103.77,80.49,97.45Zm26.74-37.14c-2.3.94-3.18,2.75-3.1,2.23C106.94,56.4,116.42,56.44,107.23,60.31ZM99.38,32.94c-1.31,2.11-1,4.1-1.2,3.64C96.84,30,104.53,24.41,99.38,32.94ZM76.93,15.41c.19,2.49,1.64,3.89,1.17,3.65C73.13,14.49,76.09,5.48,76.93,15.41Zm-28.46-1c1.61,1.9,3.61,2.18,3.09,2.27C44.85,15.92,42,6.89,48.47,14.43ZM24.87,30.36c2.42.59,4.2-.35,3.83,0C22.82,33.7,15.17,28.09,24.87,30.36ZM15.14,57.12c2.31-.94,3.19-2.75,3.11-2.23C15.44,61,6,61,15.14,57.12ZM23,84.49c1.31-2.11,1-4.1,1.2-3.63C25.54,87.48,17.84,93,23,84.49ZM45.45,102c-.19-2.49-1.64-3.89-1.17-3.65C49.25,102.94,46.29,112,45.45,102Zm28.46,1c-1.61-1.9-3.61-2.18-3.09-2.27C77.53,101.51,80.42,110.54,73.91,103Zm23.6-15.93c-2.42-.59-4.2.35-3.84,0C99.56,83.73,107.21,89.34,97.51,87.07Zm1.69-8c.22-.47,0,1.53,1.38,3.58C106.14,90.89,98.19,85.72,99.2,79Zm4.69-26.22c-.1-.52.87,1.25,3.21,2.08C116.47,58.32,107,58.82,103.89,52.82Zm-11.62-24c-.39-.35,1.44.51,3.82-.2C105.68,25.9,98.3,31.87,92.27,28.84ZM68.78,16.28c-.53-.06,1.46-.44,3-2.41C77.89,6,75.44,15.18,68.78,16.28Zm-26.4,3.65c-.45.26.93-1.22,1-3.7C43.73,6.27,47.13,15.12,42.38,19.93ZM23.18,38.39c-.22.48,0-1.53-1.38-3.58C16.24,26.54,24.19,31.71,23.18,38.39ZM18.49,64.61c.1.52-.87-1.25-3.22-2.08C5.91,59.11,15.39,58.61,18.49,64.61Zm11.62,24c.39.35-1.44-.51-3.83.2C16.7,91.53,24.07,85.56,30.11,88.59ZM53.6,101.15c.52.06-1.46.44-3,2.41C44.48,111.41,46.94,102.25,53.6,101.15ZM80,97.5c.46-.25-.92,1.22-1,3.7C78.65,111.16,75.25,102.31,80,97.5Zm27.48-39.9c-1,1.13-2.32,2.32-2.65,2.8s-1.5,3,.15-1.58c.12-.33.29-.75.49-1.17-.22-.42-.41-.83-.55-1.15-1.87-4.51-.57-2-.23-1.58S106.42,56.51,107.47,57.6ZM99.29,85c-1.48.34-3.24.52-3.8.71s-3,1.56,1.05-1.19c.3-.19.68-.43,1.1-.66.06-.47.15-.91.22-1.25,1.14-4.75.73-2,.75-1.41S99.08,83.52,99.29,85ZM76.55,102.38c-1.38-.59-2.92-1.48-3.48-1.65s-3.33-.5,1.55-.35c.35,0,.8.05,1.27.11.33-.34.65-.65.92-.88,3.71-3.17,1.75-1.17,1.43-.7S77.26,101.05,76.55,102.38Zm-28.6.69c-.77-1.29-1.49-2.92-1.85-3.38s-2.4-2.36,1.46.63c.28.22.62.51,1,.83.46-.08.91-.14,1.26-.17,4.86-.38,2.11.08,1.57.27S49.31,102.41,48,103.07ZM24.41,86.82c.13-1.5.51-3.24.49-3.83s-.55-3.31.81,1.37c.1.34.2.78.29,1.24.43.21.82.43,1.12.61,4.16,2.55,1.66,1.3,1.11,1.14S25.89,87.09,24.41,86.82Zm-9.5-27c1-1.13,2.32-2.32,2.65-2.8s1.5-3-.15,1.58c-.12.33-.29.75-.49,1.18.22.41.41.82.55,1.14,1.87,4.51.57,2,.22,1.58S16,60.92,14.91,59.83Zm8.18-27.41c1.47-.34,3.24-.52,3.8-.71s3-1.56-1.06,1.19c-.29.2-.67.43-1.09.66a12.41,12.41,0,0,1-.23,1.25c-1.13,4.75-.73,2-.74,1.41S23.3,33.91,23.09,32.42ZM45.82,15.05c1.39.59,2.93,1.48,3.49,1.65s3.33.5-1.55.35c-.35,0-.8-.05-1.27-.11-.33.34-.65.65-.92.88-3.71,3.17-1.76,1.17-1.43.7S45.11,16.38,45.82,15.05Zm28.61-.69c.77,1.29,1.49,2.92,1.85,3.39s2.4,2.35-1.46-.64c-.28-.22-.62-.51-1-.83-.46.08-.91.14-1.26.17-4.87.38-2.11-.08-1.57-.27S73.07,15,74.43,14.36ZM98,30.61c-.13,1.5-.51,3.24-.49,3.83s.55,3.31-.81-1.37c-.1-.34-.2-.78-.29-1.24-.43-.21-.82-.43-1.12-.61-4.17-2.55-1.66-1.3-1.11-1.14S96.49,30.34,98,30.61Zm5,29.68c-1.75-.72-3.32-1.28-1.61-1A2.73,2.73,0,0,1,103,60.29Zm-7-24.86c-1.84.44-3.44.92-1.87.17A2.76,2.76,0,0,1,95.92,35.43Zm-20.32-16c-1.23,1.44-2.24,2.76-1.41,1.23A2.72,2.72,0,0,1,75.6,19.47Zm-25.82-1c-.15,1.89-.19,3.55-.42,1.83A2.69,2.69,0,0,1,49.78,18.49ZM28.32,32.88c1,1.62,1.93,3,.73,1.72A2.67,2.67,0,0,1,28.32,32.88ZM19.41,57.14c1.75.72,3.32,1.28,1.61,1A2.73,2.73,0,0,1,19.41,57.14ZM26.46,82c1.84-.44,3.44-.92,1.87-.17A2.76,2.76,0,0,1,26.46,82ZM46.78,98C48,96.52,49,95.2,48.19,96.73A2.72,2.72,0,0,1,46.78,98Zm25.82,1c.15-1.89.19-3.55.42-1.83A2.75,2.75,0,0,1,72.6,98.94ZM94.06,84.55c-1-1.62-1.93-3-.73-1.72A2.72,2.72,0,0,1,94.06,84.55Zm1.07-4.33c-1.61-.68,0-.28,1.87.07A2.74,2.74,0,0,1,95.13,80.22Zm6.15-24.06c-1.69.4-.15-.23,1.56-1A2.68,2.68,0,0,1,101.28,56.16ZM92.12,33.08c-1.13,1.32-.25-.1.66-1.76A2.73,2.73,0,0,1,92.12,33.08Zm-21-13.29c-.14,1.74-.27.08-.51-1.8A2.74,2.74,0,0,1,71.15,19.79ZM46.37,21.37c.9,1.49-.17.22-1.47-1.16A2.74,2.74,0,0,1,46.37,21.37ZM27.25,37.22c1.6.67,0,.27-1.87-.08A2.69,2.69,0,0,1,27.25,37.22ZM21.09,61.27c1.7-.4.16.23-1.56,1A2.79,2.79,0,0,1,21.09,61.27Zm9.16,23.08c1.14-1.32.26.1-.65,1.76A2.78,2.78,0,0,1,30.25,84.35Zm21,13.29c.14-1.74.26-.08.5,1.8A2.74,2.74,0,0,1,51.23,97.64ZM76,96.06c-.9-1.49.17-.22,1.47,1.16A2.74,2.74,0,0,1,76,96.06Zm24.22-36.7c3.2,1.32,3,1.07,3.25,1.87C99.12,59.43,99.14,59.62,100.23,59.36ZM93.16,36.29c3.36-.81,3-.9,3.72-.4C92.3,37,92.42,37.14,93.16,36.29ZM73.87,21.78c2.25-2.63,1.94-2.51,2.77-2.51C73.59,22.86,73.77,22.9,73.87,21.78Zm-24.13-.4c.27-3.45.09-3.17.77-3.66C50.15,22.42,50.32,22.34,49.74,21.38ZM30,35.24c-1.81-3-1.79-2.62-1.53-3.41C30.92,35.84,31,35.68,30,35.24ZM22.14,58.07c-3.19-1.32-3-1.07-3.24-1.86C23.26,58,23.24,57.81,22.14,58.07Zm7.08,23.07c-3.36.81-3,.9-3.72.4C30.08,80.43,30,80.3,29.22,81.14ZM48.51,95.65c-2.25,2.63-1.94,2.52-2.78,2.51C48.79,94.57,48.6,94.53,48.51,95.65Zm24.13.4c-.27,3.45-.09,3.17-.77,3.66C72.23,95,72.06,95.09,72.64,96.05ZM92.4,82.19c1.8,3,1.79,2.62,1.52,3.41C91.46,81.59,91.36,81.75,92.4,82.19Zm5.54-2.4c-.65.53-.34.43-3.74-.22C93.43,78.76,93.31,78.9,97.94,79.79Zm5.37-25.62c-.22.8,0,.54-3.15,2C99.05,56,99,56.17,103.31,54.17ZM92.59,30.28c.3.78.3.45-1.36,3.48C90.22,34.25,90.32,34.4,92.59,30.28Zm-22.71-13c.7.46.51.19,1,3.62C70.29,21.86,70.46,21.93,69.88,17.25Zm-26,2.82c.83-.05.52-.15,2.89,2.37C46.89,23.55,47.07,23.5,43.85,20.07ZM24.44,37.64c.65-.53.34-.42,3.74.22C29,38.67,29.07,38.53,24.44,37.64ZM19.07,63.27c.21-.81,0-.55,3.15-2C23.32,61.45,23.33,61.26,19.07,63.27ZM29.79,87.15c-.3-.78-.3-.45,1.36-3.48C32.16,83.18,32.06,83,29.79,87.15Zm22.71,13c-.7-.46-.51-.19-1-3.62C52.09,95.57,51.92,95.51,52.5,100.18Zm26-2.82c-.83,0-.52.15-2.89-2.37C75.49,93.88,75.31,93.93,78.53,97.36ZM99.37,59.73c4.67,1.93,4.23,1.54,4.24,2.27C98.38,59.84,98.67,60.18,99.37,59.73ZM92.67,37.1c4.92-1.19,4.33-1.25,4.77-.66C91.94,37.77,92.37,37.87,92.67,37.1ZM74,22.72c3.28-3.85,2.77-3.55,3.47-3.34C73.76,23.69,74.17,23.52,74,22.72Zm-23.59-.63c.39-5,.15-4.5.84-4.73C50.77,23,51,22.62,50.36,22.09ZM30.9,35.45c-2.65-4.31-2.52-3.73-2.1-4.33C31.76,35.94,31.73,35.5,30.9,35.45ZM23,57.7c-4.68-1.93-4.23-1.54-4.24-2.27C24,57.59,23.71,57.25,23,57.7Zm6.7,22.63c-4.92,1.19-4.33,1.25-4.77.66C30.43,79.66,30,79.56,29.71,80.33ZM48.42,94.71c-3.28,3.85-2.76,3.55-3.46,3.34C48.62,93.74,48.21,93.91,48.42,94.71Zm23.6.63c-.39,5-.15,4.5-.84,4.74C71.61,94.44,71.38,94.81,72,95.34ZM91.48,82c2.65,4.31,2.52,3.73,2.1,4.33C90.62,81.49,90.65,81.93,91.48,82Zm7-2.76c-.41.6.18.52-4.79-.44C93.34,78,92.92,78.15,98.47,79.22Zm4.93-25.83c0,.73.45.31-4.13,2.46C98.55,55.44,98.29,55.79,103.4,53.39ZM92.21,29.59c.45.58.55,0-1.89,4.43C89.49,34.1,89.48,34.54,92.21,29.59Zm-23-12.67c.7.2.44-.33,1.07,4.69C69.62,22.17,69.87,22.53,69.17,16.92ZM43.08,20.21c.69-.25.16-.52,3.62,3.17C46.53,24.19,46.94,24.34,43.08,20.21Zm-19.17,18c.41-.6-.18-.52,4.79.44C29,39.4,29.46,39.28,23.91,38.21ZM19,64c0-.73-.45-.31,4.13-2.46C23.82,62,24.09,61.64,19,64Zm11.19,23.8c-.45-.58-.55,0,1.89-4.43C32.89,83.33,32.9,82.89,30.17,87.84Zm23,12.67c-.7-.2-.44.33-1.07-4.69C52.76,95.26,52.51,94.9,53.21,100.51ZM79.3,97.22c-.69.25-.16.52-3.62-3.17C75.85,93.24,75.43,93.09,79.3,97.22ZM98.19,61.4c11.19,4.62-.22,1.1,0,.14C98.16,61.49,98.18,61.44,98.19,61.4ZM92.7,39.14c11.77-2.84.47,1,0,.13C92.73,39.23,92.72,39.18,92.7,39.14ZM75.17,24.35c7.86-9.21,1,.55.12.09ZM52.31,22.7c.93-12.08,1.11-.13.14,0ZM32.83,34.8c-6.34-10.32.83-.76.12-.09ZM24.19,56c-11.19-4.62.22-1.1,0-.13ZM29.68,78.3c-11.77,2.83-.47-1-.05-.14C29.65,78.2,29.66,78.25,29.68,78.3ZM47.21,93.08c-7.86,9.21-1-.55-.12-.08Zm22.86,1.65c-.94,12.08-1.11.14-.14,0Zm19.48-12.1c6.33,10.32-.83.77-.12.09Zm4.1-6c.38-.9,11.86,2.4,0,.14C93.63,76.7,93.63,76.66,93.65,76.61ZM98,54.11c-.22-1,11-5,0,.14A.78.78,0,0,1,98,54.11ZM88.24,33.37c-.74-.64,6-10.53.12.09ZM68.18,22.31c-1-.08-1.38-12,.14,0A.66.66,0,0,1,68.18,22.31ZM45.45,25.16c-.84.51-8.18-8.92.11-.09ZM28.73,40.82c-.38.9-11.86-2.4,0-.14C28.75,40.73,28.75,40.77,28.73,40.82Zm-4.32,22.5c.22.95-11,5-.05-.14C24.37,63.23,24.4,63.27,24.41,63.32Zm9.73,20.74c.74.64-5.95,10.53-.12-.08ZM54.2,95.12c1,.08,1.38,12-.14,0A.65.65,0,0,1,54.2,95.12Zm22.73-2.85c.84-.5,8.18,8.92-.11.09ZM98.75,63.79c1.73.72,3.32,1.28,1.6,1A2.74,2.74,0,0,1,98.75,63.79Zm-4.19-23c1.82-.43,3.44-.92,1.86-.17A2.67,2.67,0,0,1,94.56,40.74ZM77.63,24.56c1.21-1.42,2.23-2.76,1.4-1.23A2.74,2.74,0,0,1,77.63,24.56ZM54.41,21.42c.15-1.86.19-3.55.41-1.82A2.72,2.72,0,0,1,54.41,21.42ZM33.78,32.53c-1-1.6-1.93-3-.73-1.72A2.74,2.74,0,0,1,33.78,32.53ZM23.63,53.64c-1.73-.72-3.32-1.28-1.61-1A2.78,2.78,0,0,1,23.63,53.64Zm4.19,23c-1.82.44-3.44.92-1.86.17A2.67,2.67,0,0,1,27.82,76.69ZM44.75,92.87c-1.21,1.43-2.23,2.76-1.4,1.23A2.74,2.74,0,0,1,44.75,92.87ZM68,96c-.15,1.87-.19,3.55-.41,1.82A2.72,2.72,0,0,1,68,96ZM88.59,84.9c1,1.6,1.94,3,.74,1.72A2.75,2.75,0,0,1,88.59,84.9Zm8.67-9.77c1.61.68,0,.27-1.87-.08A2.8,2.8,0,0,1,97.26,75.13ZM100,50.8c1.7-.4.14.23-1.56,1A2.72,2.72,0,0,1,100,50.8ZM88,29.49c1.14-1.33.25.1-.65,1.74A2.67,2.67,0,0,1,88,29.49ZM65.66,19.34c.14-1.74.26-.06.5,1.8A2.68,2.68,0,0,1,65.66,19.34Zm-24,4.89c-.91-1.49.18-.2,1.46,1.16A2.72,2.72,0,0,1,41.66,24.23ZM25.12,42.3c-1.61-.68,0-.27,1.87.08A2.74,2.74,0,0,1,25.12,42.3ZM22.36,66.63c-1.7.4-.14-.23,1.56-1A2.72,2.72,0,0,1,22.36,66.63ZM34.43,87.94c-1.14,1.33-.25-.1.65-1.74A2.67,2.67,0,0,1,34.43,87.94ZM56.72,98.09c-.14,1.74-.26.06-.5-1.8A2.74,2.74,0,0,1,56.72,98.09Zm24-4.89c.9,1.49-.18.2-1.46-1.16A2.76,2.76,0,0,1,80.72,93.2Zm26.76-22.75c-1-1.08-.52-5.61-3.92-6,3.74-1.39,7.74,1.43,7.26,4.63C110.54,70.73,108.47,71.6,107.48,70.45ZM105.54,41c-1.45-.3-3.72-4.24-6.71-2.58,2.2-3.32,7.09-3.39,8.6-.52C108.18,39.43,107,41.35,105.54,41ZM86.66,18.32c-1.34.62-5.5-1.24-6.94,1.86-.17-4,3.75-6.91,6.65-5.47C87.87,15.49,88.05,17.73,86.66,18.32ZM58.05,11.07c-.72,1.28-5.18,2.22-4.52,5.58-2.47-3.12-1-7.8,2.16-8.34C57.36,8.07,58.83,9.77,58.05,11.07ZM30.64,22c.17,1.47-2.88,4.85-.37,7.18-3.84-1.08-5.42-5.71-3.15-8C28.32,20,30.51,20.5,30.64,22ZM14.9,47c1,1.08.52,5.61,3.92,6-3.74,1.39-7.74-1.43-7.26-4.63C11.84,46.7,13.91,45.83,14.9,47Zm1.94,29.44c1.45.3,3.72,4.24,6.71,2.58-2.21,3.32-7.1,3.39-8.6.52C14.2,78,15.37,76.09,16.84,76.42ZM35.72,99.11c1.34-.62,5.5,1.24,6.94-1.86.17,4-3.75,6.91-6.65,5.47C34.51,101.94,34.33,99.7,35.72,99.11Zm28.61,7.25c.72-1.28,5.17-2.22,4.52-5.58,2.47,3.12,1,7.8-2.16,8.34C65,109.37,63.55,107.66,64.33,106.36ZM91.74,95.42c-.17-1.47,2.87-4.85.37-7.18,3.84,1.08,5.42,5.71,3.15,8C94.05,97.44,91.87,96.93,91.74,95.42Zm16.64-18.16c-1.36,2.94-6.25,3.1-8.62-.1,3.07,1.51,5.15-2.54,6.58-2.9S109.06,75.71,108.38,77.26ZM110.26,46c.63,3.18-3.23,6.19-7,5,3.37-.58,2.67-5.07,3.61-6.21S109.9,44.33,110.26,46ZM93.41,19.57c2.37,2.2,1,6.9-2.76,8.16,2.39-2.45-.82-5.68-.72-7.15S92.15,18.44,93.41,19.57ZM64.24,8.11c3.22.38,4.89,5,2.57,8.22.49-3.39-4-4.11-4.79-5.36S62.56,7.94,64.24,8.11ZM33.91,16c2.83-1.58,6.88,1.16,6.91,5.14-1.59-3-5.65-1-7-1.52S32.46,16.83,33.91,16ZM14,40.17c1.36-2.94,6.25-3.1,8.62.1-3.07-1.51-5.15,2.54-6.58,2.9S13.32,41.72,14,40.17ZM12.11,71.45c-.62-3.18,3.23-6.19,7-5-3.37.58-2.67,5.07-3.62,6.21S12.47,73.1,12.11,71.45ZM29,97.86c-2.38-2.2-1-6.9,2.76-8.16-2.39,2.45.82,5.68.72,7.15S30.23,99,29,97.86Zm29.16,11.46c-3.21-.38-4.88-5-2.56-8.22-.49,3.39,4,4.11,4.79,5.36S59.82,109.49,58.13,109.32Zm30.33-7.87c-2.82,1.58-6.88-1.16-6.9-5.14,1.59,3,5.65,1,7,1.52S89.92,100.6,88.46,101.45ZM67,58.57a3.24,3.24,0,0,1-.72,1.67A3.25,3.25,0,0,1,66,62a3.21,3.21,0,0,1-1.57.92c-.16.51-.71.83-1.29,1.27A3.21,3.21,0,0,1,61.32,64a3.27,3.27,0,0,1-1.8.27c-.61-.41-1.17-.71-1.36-1.21-.53,0-1-.42-1.61-.84a3.24,3.24,0,0,1-.39-1.78,3.16,3.16,0,0,1-.8-1.62,3.2,3.2,0,0,1,.72-1.67,3.26,3.26,0,0,1,.31-1.79c.57-.45,1-.89,1.56-.92.17-.5.72-.83,1.3-1.27a3.22,3.22,0,0,1,1.81.18,3.27,3.27,0,0,1,1.8-.27c.61.41,1.17.71,1.36,1.21.53,0,1,.42,1.61.84A3.24,3.24,0,0,1,66.22,57,3.16,3.16,0,0,1,67,58.57Zm42.44,14.55a16.17,16.17,0,0,1,1.1-2.18,3.4,3.4,0,0,0,.75-3.76,5.9,5.9,0,0,0-1.86-2.59c1.59.62,4.06.86,3.51-.74s-2.66-1.11-1.07-1.51c1.82-.5,1.73-1.76.29-2.26,1.91.36,3.18,2.05,4.78,2.36,1.35.27,2.41-1.39,1.23-1.61a.62.62,0,0,0-.37,1.18c-1,.49-2.27-.68-3.75-1.63-1.2-.78-3.21-1,.23-.78,3.12.1,4.78-3,6.57-1.52a.65.65,0,0,0-.48.5c-.22,1.19,1.81.78,1.14-.25a2.21,2.21,0,0,0-2.91-.72c-2.05.8-.78,1.29-5.49,1.48-1.78,0-2.48.67,1.57-1.67-4.16-2.14-3.43-1.54-1.65-1.58,4.71,0,3.47.51,5.55,1.2a2.22,2.22,0,0,0,2.88-.85c.61-1.07-1.43-1.37-1.15-.2a.62.62,0,0,0,.5.47C119.12,58,117.3,55,114.2,55.27c-3.43.33-1.43.07-.27-.77,1.43-1,2.61-2.26,3.66-1.81a.62.62,0,0,0,.43,1.16c1.17-.28,0-1.88-1.31-1.55-1.58.38-2.76,2.14-4.65,2.59,1.41-.57,1.43-1.84-.4-2.24-1.61-.32.46.12,1-1.57s-2-1.26-3.54-.56a6,6,0,0,0,1.73-2.68,3.38,3.38,0,0,0-.93-3.72,16.28,16.28,0,0,1-1.2-2.12,16.77,16.77,0,0,1-.39-2.41,3.42,3.42,0,0,0-1.61-3.49,6,6,0,0,0-3-1c1.65-.43,3.79-1.69,2.41-2.66s-2.81.66-1.75-.6c1.18-1.46.37-2.44-1.09-2C105,29,107,29.64,108.5,29c1.24-.58,1.13-2.55,0-2a.63.63,0,0,0,.39,1.18c-.54,1-2.24.77-4,.88-1.43.07-3.15,1.11-.27-.77,2.58-1.74,2.13-5.2,4.42-5.09a.62.62,0,0,0-.09.69c.51,1.09,1.92-.43.77-.88A2.22,2.22,0,0,0,107,24.07c-1.18,1.84.13,1.5-3.58,4.42-1.41,1.07-1.6,2,.3-2.28-4.62.72-3.68.77-2.27-.31,3.79-2.8,3.11-1.63,5.2-2.29a2.22,2.22,0,0,0,1.83-2.38c-.13-1.22-2-.27-1,.52a.65.65,0,0,0,.69.09c-.49,2.24-3.71.9-6.07,2.93-2.58,2.28-1.12.9-.67-.47.56-1.66.79-3.36,1.9-3.61a.62.62,0,0,0,1,.68c.78-.91-1.09-1.53-2-.48-1.06,1.24-1,3.36-2.25,4.83.81-1.29.09-2.33-1.64-1.58-1.49.69.45-.16-.12-1.85s-2.34.15-3.19,1.63A6,6,0,0,0,95,20.73,3.39,3.39,0,0,0,92,18.27a16.33,16.33,0,0,1-2.23-1,15.74,15.74,0,0,1-1.72-1.72,3.41,3.41,0,0,0-3.36-1.88,5.76,5.76,0,0,0-3,1c1.08-1.32,2.07-3.59.38-3.56s-1.88,2.18-1.77.54c.09-1.88-1.13-2.19-2-1,.92-1.7,2.93-2.39,3.71-3.81.68-1.2-.57-2.73-1.14-1.68a.62.62,0,0,0,1,.73C82,7,80.47,7.82,79.11,8.93c-1.11.91-1.89,2.76-.67-.45C79.5,5.55,77.1,3,79,1.76a.65.65,0,0,0,.32.61c1.06.57,1.31-1.48.12-1.16a2.21,2.21,0,0,0-1.58,2.55c.12,2.19,1,1.14-.3,5.68-.51,1.7-.12,2.56-1.09-2-3.33,3.29-2.53,2.79-2,1.09C75.9,4,76,5.36,77.34,3.59a2.22,2.22,0,0,0,.08-3c-.83-.91-1.75.94-.55,1a.65.65,0,0,0,.61-.33C78.4,3.4,75,4.2,74.29,7.24c-.74,3.36-.37,1.38-.81,0-.53-1.67-1.34-3.18-.59-4a.62.62,0,0,0,1.23,0c.1-1.2-1.78-.6-1.87.77-.13,1.62,1.18,3.29,1,5.22C73.16,7.63,72,7.22,71,8.84c-.8,1.43.27-.39-1.18-1.43S68,8.91,68.2,10.61a5.8,5.8,0,0,0-2-2.48,3.39,3.39,0,0,0-3.83-.26A16.42,16.42,0,0,1,60,8.36,15,15,0,0,1,57.56,8a3.4,3.4,0,0,0-3.81.45A5.84,5.84,0,0,0,51.86,11c.1-1.7-.43-4.12-1.78-3.11S49.84,10.77,49,9.37c-1-1.57-2.21-1.1-2.24.42-.25-1.92,1-3.65.77-5.26-.16-1.37-2.07-1.87-1.92-.68a.62.62,0,0,0,1.24,0c.79.82,0,2.37-.39,4.07-.37,1.38.09,3.34-.81,0-.87-3-4.3-3.63-3.47-5.78a.6.6,0,0,0,.61.3c1.2-.15.19-2-.59-1a2.21,2.21,0,0,0,.23,3c1.38,1.7,1.46.34,3.09,4.77.59,1.67,1.41,2.14-2.07-1-.75,4.62-.4,3.74-1,2.07-1.5-4.48-.59-3.47-.57-5.66a2.21,2.21,0,0,0-1.71-2.47c-1.2-.26-.86,1.78.17,1.15a.63.63,0,0,0,.3-.62c2,1.16-.29,3.8.91,6.68,1.38,3.15.51,1.34-.65.49-1.41-1-3-1.79-2.85-2.92a.62.62,0,0,0,1-.77c-.62-1-1.8.56-1.07,1.72.85,1.39,2.89,2,3.9,3.63-1-1.17-2.19-.8-2,1.07.2,1.63,0-.47-1.79-.46s-.59,2.28.55,3.54a6,6,0,0,0-3.08-.82,3.41,3.41,0,0,0-3.25,2,17.2,17.2,0,0,1-1.64,1.8,14.76,14.76,0,0,1-2.18,1.11,3.42,3.42,0,0,0-2.82,2.61,6,6,0,0,0,0,3.19c-.92-1.44-2.78-3.08-3.27-1.47s1.49,2.47,0,1.85c-1.76-.67-2.43.41-1.56,1.66-1.34-1.41-1.37-3.53-2.48-4.72-.93-1-2.77-.29-2,.58a.62.62,0,0,0,1-.73c1.12.2,1.43,1.88,2.07,3.52.52,1.34,2,2.65-.64.49-2.46-1.91-5.61-.41-6.2-2.63a.64.64,0,0,0,.67-.12c.88-.83-1-1.7-1.07-.47a2.22,2.22,0,0,0,1.94,2.29c2.12.56,1.39-.58,5.31,2,1.46,1,2.4.9-2.26.42,2.11,4.18,1.87,3.26.41,2.25-3.84-2.74-2.51-2.45-3.78-4.24a2.23,2.23,0,0,0-2.83-1c-1.13.5.35,1.95.81.84a.65.65,0,0,0-.12-.68c2.28-.23,2,3.25,4.66,4.87,3,1.74,1.2.78-.24.77-1.75,0-3.44.29-4-.68a.62.62,0,0,0,.33-1.19c-1.11-.47-1.13,1.5.15,2,1.5.62,3.5-.11,5.28.64-1.47-.37-2.24.64-1,2.05,1.12,1.2-.29-.37-1.72.68s.87,2.19,2.53,2.54a5.8,5.8,0,0,0-3,1.15,3.4,3.4,0,0,0-1.44,3.56,15.16,15.16,0,0,1-.27,2.42,16.17,16.17,0,0,1-1.1,2.18,3.39,3.39,0,0,0-.75,3.76,5.79,5.79,0,0,0,1.86,2.59c-1.59-.62-4.06-.86-3.51.74s2.66,1.12,1.07,1.51c-1.82.5-1.74,1.76-.3,2.26C8.29,57,7,55.3,5.42,55,4.07,54.72,3,56.38,4.19,56.6a.62.62,0,0,0,.37-1.18c1-.49,2.27.68,3.75,1.63,1.2.79,3.21,1-.23.78-3.12-.1-4.78,3-6.57,1.52a.63.63,0,0,0,.48-.5c.22-1.18-1.81-.78-1.14.25a2.21,2.21,0,0,0,2.91.72c2-.8.78-1.29,5.49-1.48,1.78,0,2.48-.67-1.58,1.67,4.16,2.14,3.44,1.54,1.66,1.59-4.71,0-3.48-.52-5.55-1.21a2.22,2.22,0,0,0-2.88.85c-.61,1.07,1.43,1.37,1.15.2a.62.62,0,0,0-.5-.47c1.71-1.53,3.53,1.45,6.63,1.19,3.43-.33,1.43-.07.27.77C7,64,5.84,65.19,4.79,64.74a.62.62,0,0,0-.44-1.16c-1.16.28,0,1.88,1.32,1.55,1.58-.38,2.76-2.14,4.65-2.59-1.41.57-1.44,1.84.4,2.24,1.61.32-.46-.12-1,1.57s2,1.26,3.54.56a6,6,0,0,0-1.73,2.68,3.38,3.38,0,0,0,.93,3.72,17.66,17.66,0,0,1,1.2,2.12,16.77,16.77,0,0,1,.39,2.41,3.39,3.39,0,0,0,1.61,3.49,5.86,5.86,0,0,0,3,1c-1.64.43-3.79,1.69-2.4,2.66s2.81-.66,1.75.6c-1.18,1.46-.37,2.44,1.09,2-1.75.84-3.78.21-5.25.9-1.25.58-1.13,2.55-.05,2a.63.63,0,0,0-.39-1.18c.54-1,2.23-.77,4-.87,1.43-.08,3.15-1.12.27.76-2.58,1.75-2.13,5.2-4.42,5.09a.64.64,0,0,0,.09-.69c-.52-1.08-1.92.43-.77.88a2.22,2.22,0,0,0,2.78-1.14c1.18-1.84-.13-1.49,3.57-4.42,1.42-1.07,1.61-2-.29,2.28,4.62-.71,3.68-.77,2.27.31-3.79,2.8-3.12,1.63-5.21,2.29A2.22,2.22,0,0,0,13.9,96.2c.13,1.22,2,.27,1-.52a.63.63,0,0,0-.68-.09c.49-2.24,3.71-.89,6.07-2.93,2.58-2.28,1.12-.9.67.47-.56,1.66-.79,3.36-1.9,3.61a.62.62,0,0,0-1-.68c-.78.91,1.09,1.53,2,.48,1.05-1.24,1-3.36,2.25-4.83C21.48,93,22.2,94,23.93,93.29c1.49-.69-.45.17.11,1.85s2.35-.15,3.2-1.63a6,6,0,0,0,.17,3.19,3.39,3.39,0,0,0,2.94,2.46,18,18,0,0,1,2.22,1,15.27,15.27,0,0,1,1.73,1.72,3.41,3.41,0,0,0,3.35,1.88,5.78,5.78,0,0,0,3-1c-1.08,1.32-2.07,3.59-.39,3.56s1.89-2.18,1.78-.54c-.1,1.88,1.13,2.19,2.05,1-.93,1.71-2.93,2.39-3.72,3.81-.67,1.2.58,2.73,1.15,1.68a.62.62,0,0,0-1-.73c-.16-1.12,1.35-1.94,2.71-3,1.11-.91,1.89-2.76.67.45-1.07,2.94,1.33,5.47-.59,6.72a.64.64,0,0,0-.33-.61c-1.06-.57-1.3,1.48-.11,1.17a2.23,2.23,0,0,0,1.58-2.56c-.12-2.19-1-1.13.3-5.68.51-1.69.12-2.56,1.09,2,3.33-3.29,2.53-2.79,2-1.09-1.42,4.5-1.56,3.15-2.86,4.92a2.22,2.22,0,0,0-.08,3c.83.91,1.75-.94.54-1a.64.64,0,0,0-.6.33c-.92-2.1,2.47-2.9,3.19-5.94.74-3.36.37-1.38.81,0,.53,1.67,1.34,3.18.59,4a.63.63,0,0,0-1.24,0c-.09,1.2,1.79.61,1.88-.77.13-1.62-1.18-3.29-1-5.22.1,1.52,1.3,1.93,2.25.31.81-1.43-.26.39,1.19,1.43s1.81-1.5,1.63-3.2a5.8,5.8,0,0,0,2,2.48,3.39,3.39,0,0,0,3.83.26,16.42,16.42,0,0,1,2.39-.49,15.27,15.27,0,0,1,2.41.38,3.4,3.4,0,0,0,3.81-.45,6,6,0,0,0,1.89-2.57c-.1,1.7.43,4.12,1.78,3.11s.24-2.88,1.11-1.48c1,1.57,2.21,1.1,2.24-.42.25,1.92-1,3.65-.77,5.27.16,1.36,2.07,1.86,1.91.67a.62.62,0,0,0-1.24,0c-.78-.82,0-2.37.4-4.07.37-1.38-.09-3.34.81,0,.86,3,4.29,3.63,3.47,5.78a.62.62,0,0,0-.62-.3c-1.19.16-.18,2,.6,1a2.23,2.23,0,0,0-.23-3c-1.38-1.7-1.46-.34-3.1-4.77-.58-1.67-1.4-2.14,2.08,1,.75-4.62.4-3.74,1-2.07,1.5,4.48.59,3.47.57,5.66a2.23,2.23,0,0,0,1.7,2.48c1.21.25.87-1.79-.16-1.16a.63.63,0,0,0-.3.62c-2-1.16.29-3.8-.91-6.68-1.38-3.15-.51-1.34.65-.49,1.41,1.05,3,1.79,2.85,2.92a.63.63,0,0,0-1,.78c.62,1,1.8-.56,1.07-1.73-.85-1.39-2.89-2-3.9-3.63,1,1.17,2.19.8,2-1.07-.2-1.63,0,.47,1.79.46s.58-2.28-.56-3.54a6,6,0,0,0,3.08.82,3.41,3.41,0,0,0,3.26-2,16,16,0,0,1,1.64-1.8,15.42,15.42,0,0,1,2.17-1.11A3.42,3.42,0,0,0,96.77,95a6,6,0,0,0,0-3.19c.92,1.44,2.78,3.09,3.27,1.47s-1.49-2.47,0-1.85c1.76.67,2.43-.41,1.56-1.65,1.34,1.4,1.36,3.52,2.48,4.71.93,1,2.77.29,1.94-.58a.62.62,0,0,0-1,.73c-1.11-.2-1.42-1.88-2.06-3.52-.52-1.34-2-2.65.64-.49,2.46,1.92,5.61.41,6.2,2.63a.64.64,0,0,0-.67.12c-.88.83,1,1.7,1.07.47a2.22,2.22,0,0,0-1.94-2.29c-2.12-.56-1.39.58-5.31-2-1.46-1-2.4-.9,2.25-.42-2.1-4.17-1.87-3.26-.4-2.25,3.83,2.74,2.51,2.46,3.78,4.24a2.23,2.23,0,0,0,2.83,1c1.12-.5-.35-2-.81-.84a.65.65,0,0,0,.12.68c-2.28.23-2-3.25-4.66-4.87-3-1.74-1.2-.78.24-.77,1.75,0,3.43-.29,4,.68a.63.63,0,0,0-.33,1.2c1.11.46,1.12-1.51-.15-2-1.51-.62-3.5.11-5.29-.64,1.48.37,2.24-.64,1-2-1.12-1.2.29.37,1.72-.68s-.87-2.19-2.53-2.54a5.85,5.85,0,0,0,3-1.14,3.42,3.42,0,0,0,1.44-3.57A15.16,15.16,0,0,1,109.46,73.12Zm4.24-15.67c-1.49.91-1.86,1.49-.9.09l.06-.07-.06-.08C111.77,56.05,112.17,56.6,113.7,57.45ZM102.93,26.82c-.67,1.62-.63,2.3-.67.61a.28.28,0,0,0,0-.09l-.09,0C100.54,26.82,101.19,27,102.93,26.82ZM76.21,8.38c.41,1.7.84,2.23-.19.89a.35.35,0,0,0,0-.08l-.09,0C74.28,9.78,74.94,9.58,76.21,8.38Zm-32.46.79c1.33,1.13,2,1.3.38.82L44,10,44,10C43,11.43,43.43,10.88,43.75,9.17ZM18,28.88c1.74.13,2.38-.12.78.45l-.08,0v.09C18.7,31.14,18.7,30.46,18,28.88ZM8.68,60c1.49-.91,1.86-1.49.9-.09L9.52,60l.06.08C10.61,61.38,10.21,60.83,8.68,60ZM19.45,90.61c.67-1.62.63-2.3.67-.61v.09l.09,0C21.83,90.61,21.19,90.39,19.45,90.61Zm26.72,18.44c-.41-1.7-.84-2.23.18-.89l.06.08.09,0C48.1,107.65,47.44,107.85,46.17,109.05Zm32.45-.78c-1.33-1.14-2-1.31-.37-.83l.09,0,.06-.08C79.36,106,79,106.55,78.62,108.27Zm25.8-19.72c-1.74-.13-2.38.12-.79-.44l.09,0V88C103.68,86.29,103.67,87,104.42,88.55Zm7.37-31.06c0,.08-.07.16-.12.24a.61.61,0,0,0-.11-.23.87.87,0,0,0,.1-.24ZM101.4,28a1.84,1.84,0,0,1,0,.25,1.19,1.19,0,0,0-.22-.12,1.29,1.29,0,0,0-.06-.25A1.67,1.67,0,0,1,101.4,28ZM75.66,10.22a1.07,1.07,0,0,1,.19.18,1,1,0,0,0-.25,0,1.54,1.54,0,0,0-.19-.17ZM44.39,11l.26,0a1,1,0,0,0-.18.17,1.1,1.1,0,0,0-.26,0ZM19.54,30l.22-.12a1.18,1.18,0,0,0,0,.25,1.27,1.27,0,0,0-.22.13C19.51,30.14,19.52,30.05,19.54,30Zm-8.95,30,.11-.24a.71.71,0,0,0,.12.23.64.64,0,0,0-.1.24ZM21,89.45a2.34,2.34,0,0,1,0-.26,1.19,1.19,0,0,0,.22.12,1.29,1.29,0,0,0,.06.25Zm25.75,17.76a1.54,1.54,0,0,1-.19-.17l.25,0a1,1,0,0,0,.19.17ZM78,106.46l-.26,0a1,1,0,0,0,.18-.17,1.1,1.1,0,0,0,.26,0Zm24.85-19-.23.12a.79.79,0,0,0,0-.25,1.27,1.27,0,0,0,.22-.13A2.34,2.34,0,0,1,102.84,87.47Zm5.67-29.9-.41.21.16-.2a1.54,1.54,0,0,0-.17-.19ZM98.8,30c-.08.14-.15.28-.21.41,0-.08,0-.17,0-.25l-.25-.06A3.63,3.63,0,0,0,98.8,30ZM74.73,13.35c0,.16,0,.32.06.46l-.14-.21-.23.1Zm-29.25.71c.11.12.21.23.32.33l-.24-.09c0,.07-.09.14-.13.22C45.45,14.38,45.47,14.22,45.48,14.06ZM22.23,31.82a4,4,0,0,0,.46.08l-.25.07a2.13,2.13,0,0,0,0,.25C22.4,32.09,22.32,32,22.23,31.82Zm-8.36,28,.41-.21-.16.2a1.54,1.54,0,0,0,.17.19Zm9.71,27.6c.07-.14.15-.28.21-.41a2.09,2.09,0,0,0,0,.25l.25.06A3.63,3.63,0,0,0,23.58,87.46Zm24.07,16.62c0-.16,0-.32-.06-.46a1.53,1.53,0,0,0,.14.21l.23-.1C47.86,103.84,47.75,104,47.65,104.08Zm29.25-.71-.32-.33.24.09.13-.22C76.93,103.06,76.91,103.21,76.9,103.37Zm23.25-17.76a4,4,0,0,0-.46-.08l.25-.07,0-.25C100,85.34,100.06,85.47,100.15,85.61Zm4.76-27.95a17.05,17.05,0,0,0-1,3.2,3.31,3.31,0,1,0-2.86,4.47,3.08,3.08,0,0,0,.36,4.53c2.26,1.75,4.41-1.21,3-2.69-.73-.72-1.46-.6-1.76-.08a.77.77,0,0,0,.18,1.18.2.2,0,0,0,.2-.34c-.78-1,1.44-1.24,1.3.4-.09,1.87-2.67,2-3.32-.09-.59-1.87,1.77-4.87,3.93-2.55,2,2.1.43,6,3.77,6,.46,0,1.15-.39-.42.84l-.26.2.11.32c.63,1.88.27,1.17-.12.93-2.76-1.87-3.6,2.26-6.41,2.92-3.09.76-3.42-3-1.9-4.28,1.68-1.38,3.78.13,2.83,1.74-.78,1.45-2.49,0-1.31-.37a.2.2,0,0,0,0-.4c.36.06-.77-.27-.8.89,0,.59.51,1.1,1.52.9,2-.47,1.82-4.12-1-3.9A3.09,3.09,0,0,0,98.18,75a3.31,3.31,0,1,0-.05,5.31,17.53,17.53,0,0,0-.95,3.21,17.15,17.15,0,0,0-2.66,2,3.31,3.31,0,1,0-5,1.94,3.08,3.08,0,0,0-2.37,3.87c.8,2.75,4.28,1.62,4-.41-.18-1-.84-1.35-1.39-1.1-1.07.43-.37,1.37-.54,1.05a.2.2,0,1,0,.36-.15c-.07-1.23,1.89-.15.81,1.09-1.16,1.46-3.33,0-2.63-2,.62-1.86,4.3-2.9,4.68.26.37,2.86-3.19,5.11-.46,7,.37.28,1.16.36-.83.44h-.33c0,.11-.07.21-.1.32-.6,1.9-.47,1.11-.64.69-1.14-3.14-4.24-.3-6.91-1.41-2.94-1.2-1-4.47,1-4.58,2.17-.13,3,2.33,1.27,3.07-1.48.71-2-1.46-.84-1.07a.2.2,0,0,0,.25-.31.77.77,0,0,0-1.17.25c-.38.46-.23,1.19.7,1.62,1.89.79,3.89-2.27,1.45-3.76a3.07,3.07,0,0,0-4.36,1.27,3.31,3.31,0,1,0-3.16,4.26,16.8,16.8,0,0,0-2.65,2,17.55,17.55,0,0,0-3.35.07,3.31,3.31,0,1,0-5.14-1.34A3.07,3.07,0,0,0,63,100.44c-1,2.69,2.51,3.83,3.49,2,.45-.93.11-1.58-.47-1.71-1.13-.28-1.11.9-1.07.54a.2.2,0,0,0,.39.09c.66-1,1.61,1,0,1.35-1.81.5-2.72-1.93-.94-3.19,1.59-1.13,5.18.18,3.63,3-1.38,2.54-5.58,2.26-4.5,5.42.13.44.72,1-.93-.13l-.28-.19-.26.21c-1.6,1.18-1,.62-.93.17.92-3.21-3.26-2.73-4.76-5.19-1.68-2.71,1.84-4.19,3.49-3.14,1.83,1.18,1,3.64-.79,3.23-1.61-.29-.76-2.36,0-1.35a.2.2,0,0,0,.38-.11c.06.36,0-.82-1.09-.48-.58.15-.89.82-.39,1.72,1.06,1.75,4.48.45,3.38-2.19a3.06,3.06,0,0,0-4.26-1.54A3.31,3.31,0,1,0,52,100.53a16.85,16.85,0,0,0-3.35.1,16.9,16.9,0,0,0-2.74-1.92,3.31,3.31,0,1,0-3.37-4.1,3.07,3.07,0,0,0-4.41-1.06c-2.37,1.61-.23,4.57,1.62,3.69.92-.48,1-1.21.62-1.65-.74-.89-1.42.07-1.17-.2a.2.2,0,0,0,.26.3c1.15-.45.73,1.75-.78,1.11-1.75-.66-1.07-3.15,1.11-3.13,2,0,4.08,3.19,1.2,4.53-2.61,1.24-5.84-1.45-6.83,1.74-.15.43,0,1.21-.67-.66L33.4,99h-.33c-2,0-1.2-.11-.85-.4,2.63-2.06-1-4.13-.8-7,.23-3.17,3.95-2.3,4.66-.48.8,2-1.29,3.55-2.53,2.15-1.13-1.18.77-2.36.76-1.12a.2.2,0,0,0,.37.13c-.16.33.5-.64-.6-1-.55-.22-1.2.14-1.32,1.16-.17,2,3.36,3,4,.21a3.06,3.06,0,0,0-2.55-3.74,3.31,3.31,0,1,0-5-1.7,17.31,17.31,0,0,0-2.76-1.89,17.17,17.17,0,0,0-1.1-3.16,3.31,3.31,0,1,0-.31-5.3,3.08,3.08,0,0,0-3-3.45c-2.86-.09-2.87,3.57-.85,3.94,1,.15,1.53-.38,1.47-1-.08-1.16-1.19-.78-.84-.85a.2.2,0,0,0,0,.4c1.19.31-.44,1.84-1.29.43-1-1.56,1-3.17,2.75-1.88,1.57,1.17,1.42,5-1.7,4.38-2.83-.54-3.87-4.61-6.54-2.61-.38.26-.71,1-.16-.93,0-.11.06-.21.09-.32l-.27-.19c-1.63-1.16-.92-.8-.46-.82,3.34-.12,1.59-4,3.47-6.14,2.05-2.43,4.56.46,4.06,2.35-.55,2.11-3.14,2.11-3.32.25-.22-1.62,2-1.45,1.28-.46a.2.2,0,1,0,.22.33c-.32.17.78-.24.12-1.19-.32-.5-1-.59-1.76.17-1.33,1.55,1,4.4,3.14,2.54a3.08,3.08,0,0,0,.13-4.54,3.31,3.31,0,1,0-3.07-4.33,16.9,16.9,0,0,0-1.12-3.15,17.11,17.11,0,0,0,1-3.2A3.31,3.31,0,1,0,21.3,52.1a3.07,3.07,0,0,0-.36-4.52c-2.26-1.76-4.42,1.2-3,2.68.74.72,1.47.6,1.77.08a.77.77,0,0,0-.18-1.18.2.2,0,0,0-.2.34c.78,1-1.44,1.24-1.3-.4.09-1.86,2.67-2,3.32.09.59,1.87-1.77,4.87-3.94,2.55-2-2.1-.42-6-3.76-6-.46,0-1.15.38.41-.85l.27-.2a3,3,0,0,1-.11-.32c-.63-1.88-.27-1.17.12-.93,2.76,1.87,3.6-2.25,6.41-2.92,3.09-.76,3.42,3,1.9,4.28-1.68,1.38-3.78-.13-2.83-1.74.78-1.45,2.48,0,1.31.37a.2.2,0,0,0,0,.4c-.36,0,.77.27.79-.89,0-.59-.5-1.1-1.51-.9-2,.47-1.82,4.13,1,3.9a3.07,3.07,0,0,0,2.77-3.59,3.31,3.31,0,1,0,.06-5.31,17.53,17.53,0,0,0,.95-3.21,17.15,17.15,0,0,0,2.66-2,3.31,3.31,0,1,0,5-1.94,3.08,3.08,0,0,0,2.37-3.86c-.8-2.76-4.28-1.63-4,.4.18,1,.84,1.35,1.38,1.1,1.08-.43.37-1.37.55-1.05a.2.2,0,1,0-.36.15c.07,1.23-1.89.15-.82-1.09,1.17-1.46,3.33,0,2.64,2-.62,1.86-4.3,2.9-4.68-.26-.37-2.86,3.18-5.11.46-7-.37-.27-1.16-.36.83-.44h.33c0-.11.06-.21.1-.32.6-1.9.47-1.11.64-.68,1.14,3.13,4.24.29,6.91,1.4,2.94,1.2,1,4.47-1,4.58-2.18.13-3-2.33-1.27-3.07,1.48-.71,2,1.46.84,1.07a.2.2,0,0,0-.25.31c-.26-.25.47.67,1.17-.25.38-.46.23-1.19-.7-1.62-1.89-.79-3.89,2.27-1.45,3.76a3.06,3.06,0,0,0,4.35-1.27A3.31,3.31,0,1,0,44,19.5a16.8,16.8,0,0,0,2.65-2A17.56,17.56,0,0,0,50,17.39a3.31,3.31,0,1,0,5.14,1.34A3.07,3.07,0,0,0,59.35,17c1-2.69-2.51-3.83-3.49-2-.45.93-.11,1.58.47,1.71a.78.78,0,0,0,1.07-.54.2.2,0,0,0-.39-.08c-.66,1-1.62-1,0-1.36,1.8-.5,2.72,1.93.94,3.19-1.59,1.13-5.18-.18-3.63-3,1.38-2.54,5.58-2.26,4.5-5.42-.13-.44-.72-1,.93.13l.28.19.26-.2c1.6-1.19,1-.63.93-.18-.92,3.21,3.26,2.73,4.76,5.19,1.68,2.71-1.84,4.19-3.49,3.14-1.83-1.18-1-3.64.79-3.23,1.61.29.76,2.36,0,1.35a.2.2,0,0,0-.38.11c-.06-.36,0,.82,1.09.48.58-.15.89-.82.39-1.72C63.33,13,59.91,14.31,61,17a3.08,3.08,0,0,0,4.27,1.54,3.31,3.31,0,1,0,5.07-1.59,17.73,17.73,0,0,0,3.35-.09,16.91,16.91,0,0,0,2.74,1.91,3.31,3.31,0,1,0,3.37,4.1,3.07,3.07,0,0,0,4.41,1.06c2.37-1.61.22-4.57-1.63-3.69-.91.48-1,1.21-.62,1.65a.78.78,0,0,0,1.18.2.2.2,0,0,0-.26-.3c-1.15.45-.73-1.75.78-1.11,1.75.66,1.06,3.15-1.11,3.13-2,0-4.09-3.19-1.2-4.53C84,18,87.2,20.68,88.19,17.49c.15-.43,0-1.21.67.66l.12.31h.33c2,0,1.2.11.85.4-2.63,2.06,1,4.13.8,7-.23,3.17-3.95,2.3-4.66.48-.8-2,1.29-3.55,2.53-2.15,1.13,1.18-.78,2.36-.76,1.12a.2.2,0,0,0-.37-.13c.16-.33-.5.64.6,1,.55.21,1.2-.15,1.32-1.17.17-2-3.36-3-4-.21a3.08,3.08,0,0,0,2.56,3.75,3.31,3.31,0,1,0,5,1.69,17.31,17.31,0,0,0,2.76,1.89A17.17,17.17,0,0,0,97,35.32a3.31,3.31,0,1,0,.31,5.3,3.08,3.08,0,0,0,3,3.45c2.86.09,2.87-3.57.85-3.94-1-.15-1.54.38-1.47,1,.08,1.16,1.19.78.83.85a.2.2,0,1,0,0-.39c-1.2-.32.44-1.85,1.29-.44,1,1.56-1,3.18-2.75,1.88-1.57-1.17-1.43-5,1.69-4.37,2.84.53,3.88,4.6,6.55,2.61.38-.27.7-1,.16.92l-.09.32.27.19c1.62,1.16.91.8.46.82-3.34.12-1.59,3.95-3.47,6.14-2,2.43-4.56-.46-4.06-2.35.55-2.11,3.14-2.11,3.31-.25.22,1.62-2,1.45-1.27.46a.2.2,0,0,0-.22-.33.78.78,0,0,0-.12,1.19c.32.5,1,.59,1.76-.17,1.33-1.55-1-4.4-3.14-2.54a3.08,3.08,0,0,0-.14,4.54,3.31,3.31,0,1,0,3.08,4.33A16.9,16.9,0,0,0,104.91,57.66ZM98.49,69.85C98,69,97.35,69,97.2,67.42c0-.51-.71.38-.84,1.79-.66,1.25-.58,2.37-.28,2C97,70,97.64,70.3,98.49,69.85Zm-.58-24.06c-.87-.4-1.46,0-2.47-1.2-.33-.39-.35.73.38,1.94.19,1.4.91,2.26.92,1.76C96.81,46.75,97.49,46.66,97.91,45.79ZM83.3,26.68c-.94.18-1.21.81-2.71.48-.49-.13.15.79,1.45,1.35,1,1,2.07,1.29,1.78.87C83,28.1,83.47,27.63,83.3,26.68Zm-23-6.88c-.66.7-.5,1.37-1.91,2-.48.18.58.55,2,.24,1.39.24,2.44-.17,2-.34C60.82,21.14,60.94,20.47,60.25,19.8Zm-22.7,8c-.11,1,.4,1.41-.38,2.73-.27.43.8.1,1.73-1,1.27-.62,1.87-1.57,1.38-1.42C38.8,28.53,38.51,27.92,37.55,27.78ZM23.88,47.58c.47.85,1.15.91,1.3,2.43,0,.51.71-.38.83-1.79.67-1.25.59-2.37.29-2C25.34,47.46,24.74,47.13,23.88,47.58Zm.59,24.06c.87.4,1.45,0,2.47,1.2.32.4.35-.73-.38-1.94-.19-1.4-.91-2.26-.92-1.75C25.57,70.68,24.89,70.77,24.47,71.64Zm14.6,19.11c1-.18,1.22-.81,2.72-.47.49.12-.15-.8-1.45-1.35-1-1-2.07-1.3-1.78-.88C39.4,89.33,38.91,89.8,39.07,90.75Zm23.06,6.88c.66-.7.5-1.37,1.91-2,.47-.18-.59-.55-2-.24-1.39-.24-2.44.17-2,.34C61.56,96.29,61.44,97,62.13,97.63Zm22.7-8c.11-1-.4-1.41.38-2.73.27-.43-.8-.1-1.73,1-1.27.62-1.87,1.57-1.39,1.42C83.58,88.9,83.87,89.51,84.83,89.65Zm9.61-21c1.71-3.6-.2-3.24.58-5.47.13-.34-.53-.25-1.47,1.22s-.59,3.62-1,.8c-.88-5.56,1.15-1.38,2.48-6.92a3.25,3.25,0,0,1,.11-.37c0-.12-.09-.24-.13-.37-1.59-5.47-3.42-1.2-2.81-6.79.32-2.84,0-.8,1.09.75s1.67,1.48,1.52,1.15c-.89-2.2,1-1.93-.84-5.44-.73-3.92-2.06-2.5-2.75-4.77-.09-.35-.56.11-.47,1.85s1.65,3.28-.38,1.27c-4-4,.12-1.8-2.06-7.06-.05-.12-.09-.24-.13-.36s-.21-.14-.32-.23c-4.5-3.48-3.47,1-6.26-3.84-1.41-2.48-.46-.64,1.32,0s2.23.21,1.91,0c-2-1.25-.3-2.16-3.88-3.9-2.9-2.74-3.14-.81-5-2.24-.28-.24-.39.42.71,1.77s3.26,1.68.44,1.25c-5.55-.88-1-1.52-5.81-4.5a2,2,0,0,1-.32-.22H70.5c-5.69-.17-2.2,2.88-7.33.58-2.6-1.19-.75-.26,1-.81s1.93-1.13,1.56-1.09c-2.36.16-1.51-1.58-5.43-.88-4-.51-3,1.19-5.38,1.14-.37,0-.07.57,1.61,1s3.63-.56,1.09.75c-5,2.55-1.67-.67-7.35-.22h-.39a1.92,1.92,0,0,1-.31.23c-4.7,3.21-.08,3.63-5.59,4.78-2.79.57-.75.24.38-1.27s.89-2,.62-1.8c-1.81,1.52-2.15-.4-4.91,2.48-3.49,1.9-1.74,2.73-3.68,4.08-.31.2.28.51,1.9-.12s2.61-2.59,1.33,0c-2.56,5-1.75.44-6.08,4.13a3.24,3.24,0,0,1-.31.24,2.59,2.59,0,0,1-.11.37c-1.92,5.36,2.06,3-1.72,7.15-1.93,2.11-.47.64-.44-1.24s-.48-2.19-.55-1.83c-.58,2.3-2,1-2.52,4.89-1.71,3.6.2,3.24-.58,5.48-.13.34.53.24,1.47-1.23s.59-3.62,1.05-.8c.88,5.56-1.15,1.39-2.48,6.92a3.25,3.25,0,0,1-.11.37c.05.12.09.24.13.37,1.59,5.47,3.42,1.2,2.81,6.79-.32,2.84,0,.8-1.09-.74s-1.68-1.49-1.52-1.16c.88,2.2-1,1.93.84,5.44.73,3.92,2.06,2.5,2.75,4.77.09.35.56-.11.46-1.85s-1.64-3.28.39-1.27c4,4-.12,1.8,2,7.06a2.67,2.67,0,0,1,.14.36,3.09,3.09,0,0,1,.31.23c4.51,3.48,3.48-1,6.27,3.84,1.41,2.48.46.64-1.32,0s-2.23-.21-1.91,0c2,1.25.29,2.16,3.88,3.9,2.89,2.74,3.14.81,5,2.24.29.24.4-.42-.71-1.77s-3.26-1.68-.43-1.25c5.55.88,1,1.53,5.81,4.5a2.57,2.57,0,0,1,.32.22h.39c5.69.17,2.2-2.88,7.33-.58,2.6,1.19.75.26-1.05.81s-1.93,1.14-1.56,1.09c2.36-.16,1.51,1.59,5.43.88,4,.52,3-1.19,5.38-1.14.37,0,.07-.57-1.62-1s-3.62.56-1.08-.75c5-2.55,1.67.67,7.35.22h.38a3.55,3.55,0,0,1,.31-.23c4.71-3.21.09-3.63,5.59-4.78,2.8-.57.76-.23-.37,1.27s-.89,2.05-.62,1.81c1.81-1.53,2.15.39,4.9-2.49,3.5-1.9,1.74-2.73,3.69-4.08.31-.2-.28-.51-1.91.13s-2.6,2.58-1.32,0c2.56-5,1.75-.44,6.08-4.13A2.34,2.34,0,0,1,89.1,78a2.59,2.59,0,0,1,.11-.37c1.92-5.36-2.06-3,1.71-7.15,1.93-2.11.48-.64.45,1.24s.48,2.19.55,1.83C92.5,71.23,93.89,72.58,94.44,68.64Zm-1.22-10.7a5.86,5.86,0,0,0-.66.8c-.35.5-.3,0-.32-.77s-.09-1.27.28-.8A5.22,5.22,0,0,0,93.22,57.94ZM86.65,39.26a5.8,5.8,0,0,0-.07,1c0,.6-.22.2-.72-.44s-.81-1-.23-.81A4.87,4.87,0,0,0,86.65,39.26ZM70.35,28a5.64,5.64,0,0,0,.56.88c.36.48-.06.3-.84.07s-1.23-.31-.66-.52A5.39,5.39,0,0,0,70.35,28Zm-19.79.48a5.19,5.19,0,0,0,1,.38c.58.18.13.28-.64.55s-1.18.47-.84,0A5.5,5.5,0,0,0,50.56,28.49Zm-15.74,12a6.83,6.83,0,0,0,1-.26c.57-.2.26.14-.2.81s-.67,1.08-.69.48A5.49,5.49,0,0,0,34.82,40.52Zm-5.66,19a6.69,6.69,0,0,0,.66-.8c.35-.49.3,0,.32.78s.09,1.26-.28.79A5.84,5.84,0,0,0,29.16,59.49Zm6.57,18.68a5.8,5.8,0,0,0,.07-1c0-.6.22-.2.71.44s.82,1,.24.81A5.61,5.61,0,0,0,35.73,78.17ZM52,89.42a5.64,5.64,0,0,0-.56-.88c-.36-.48.06-.3.84-.07s1.23.31.66.52A5.39,5.39,0,0,0,52,89.42Zm19.79-.48a5.19,5.19,0,0,0-1-.38c-.58-.18-.13-.28.64-.55s1.18-.47.84,0A6,6,0,0,0,71.82,88.94Zm15.74-12a5.52,5.52,0,0,0-1,.25c-.57.2-.26-.14.2-.81s.67-1.08.69-.48A5.7,5.7,0,0,0,87.56,76.92Zm-1-18.82a2.64,2.64,0,0,0,1.67.87A1.48,1.48,0,0,0,89.92,58a1.48,1.48,0,0,0-1.71-.86A2.63,2.63,0,0,0,86.58,58.1ZM81.37,43.29A2.57,2.57,0,0,0,83.23,43,1.47,1.47,0,0,0,84,41.27a1.47,1.47,0,0,0-1.89.31A2.62,2.62,0,0,0,81.37,43.29ZM68.45,34.38a2.63,2.63,0,0,0,1.34-1.32,1.48,1.48,0,0,0-.38-1.88,1.47,1.47,0,0,0-1.35,1.36A2.6,2.6,0,0,0,68.45,34.38Zm-15.69.38a2.63,2.63,0,0,0,.31-1.86,1.48,1.48,0,0,0-1.42-1.29,1.46,1.46,0,0,0-.29,1.89A2.61,2.61,0,0,0,52.76,34.76ZM40.29,44.29a2.62,2.62,0,0,0-.85-1.68,1.46,1.46,0,0,0-1.9-.22,1.48,1.48,0,0,0,.88,1.71A2.62,2.62,0,0,0,40.29,44.29Zm-4.49,15a2.64,2.64,0,0,0-1.67-.87,1.48,1.48,0,0,0-1.67.95,1.47,1.47,0,0,0,1.71.86A2.63,2.63,0,0,0,35.8,59.33ZM41,74.14a2.57,2.57,0,0,0-1.86.28,1.49,1.49,0,0,0-.8,1.74,1.48,1.48,0,0,0,1.9-.3A2.64,2.64,0,0,0,41,74.14Zm12.92,8.91a2.63,2.63,0,0,0-1.34,1.32A1.48,1.48,0,0,0,53,86.25a1.47,1.47,0,0,0,1.35-1.36A2.6,2.6,0,0,0,53.93,83.05Zm15.69-.38a2.64,2.64,0,0,0-.31,1.86,1.48,1.48,0,0,0,1.42,1.29A1.47,1.47,0,0,0,71,83.93,2.66,2.66,0,0,0,69.62,82.67Zm12.47-9.53a2.65,2.65,0,0,0,.84,1.68,1.47,1.47,0,0,0,1.91.22,1.47,1.47,0,0,0-.88-1.7A2.58,2.58,0,0,0,82.09,73.14Zm7-15.1a1,1,0,0,1-1.2.05l0,0,0,0A1,1,0,0,1,89.06,58ZM83.34,41.79c-.06.33-.33.65-.94.74h0v0C82.63,41.94,83,41.76,83.34,41.79ZM69.16,32a1,1,0,0,1-.32,1.16l0,0v0A1,1,0,0,1,69.16,32Zm-17.22.42a1,1,0,0,1,.41,1.13v0l0,0A1,1,0,0,1,51.94,32.42ZM38.25,42.88c.33-.05.72.12,1,.67v0h0C38.61,43.51,38.32,43.21,38.25,42.88ZM33.32,59.39a1,1,0,0,1,1.2,0l0,0,0,0A1,1,0,0,1,33.32,59.39ZM39,75.64c.06-.33.33-.65.94-.74h0l0,0C39.75,75.49,39.38,75.67,39,75.64Zm14.18,9.79a1,1,0,0,1,.32-1.16l0,0v0A1,1,0,0,1,53.22,85.43ZM70.44,85A1,1,0,0,1,70,83.89v0l0,0A1,1,0,0,1,70.44,85ZM84.13,74.55c-.33,0-.72-.11-1-.67l0,0h0C83.77,73.92,84.06,74.22,84.13,74.55ZM91.63,58a17.51,17.51,0,0,1-.1,4.75c-.84-1.21-.54-2-2-2.82S88,59.06,88,59.23a4.11,4.11,0,0,0,2.4,3.82c1.93.87,1-.69,1.53,2.23.59,3.49-.37-.34-2.1-1.2-.34-.17-2.51-.76-2.51-.77-.45-.19.73,4.49,5.15,4.12.09.24.18.48.27.7l-.61.44c-3.49-2.73-7,.53-6.56.62,0,0,2.14.69,2.51.73,1.92.23,4.82-2.44,2.42.14-2,2.18-.41,1.37-2.5,1A4.13,4.13,0,0,0,83.9,73c-.13.13.06.16,1.67.29s1.83-.72,3.2-1.28a17.53,17.53,0,0,1-2.52,4,17.69,17.69,0,0,1-2.87,3.78c0-1.48.75-2,.05-3.44s-.78-1.63-.86-1.47a4.14,4.14,0,0,0-.3,4.51c1.06,1.83,1.25,0-.08,2.7-1.56,3.16-.09-.5-1-2.21-.17-.33-1.57-2.09-1.57-2.09-.26-.43-2,4,1.75,6.35-.08.25-.14.5-.2.73h-.75c-1.22-4.27-6-3.72-5.67-3.36,0,0,1.33,1.82,1.6,2.07,1.42,1.31,5.34.86,1.87,1.54-2.9.58-1.14.86-2.63-.64a4.11,4.11,0,0,0-4.42-.89c-.18,0,0,.16,1.19,1.21s1.9.49,3.34.85a17.61,17.61,0,0,1-4.41,1.78,17.13,17.13,0,0,1-4.56,1.37c.9-1.17,1.76-1.14,2.07-2.75s.33-1.78.17-1.69a4.15,4.15,0,0,0-2.89,3.47c-.22,2.1,1,.78-1.65,2.14-3.13,1.64.22-.46.49-2.37.06-.37,0-2.62,0-2.62,0-.49-4,2.08-2.32,6.17l-.59.47-.61-.44c1.53-4.17-2.67-6.54-2.61-6,0,0,0,2.25.08,2.62.38,1.89,3.82,3.83.61,2.34-2.69-1.24-1.42,0-1.75-2.06a4.12,4.12,0,0,0-3.05-3.32c-.16-.08-.13.11.24,1.68s1.25,1.51,2.2,2.65a18,18,0,0,1-4.61-1.15A17.74,17.74,0,0,1,48,86.33c1.42-.43,2.1.11,3.3-1s1.3-1.25,1.12-1.27A4.12,4.12,0,0,0,48,85.16c-1.42,1.56.33,1.2-2.6.76-3.49-.51.45-.25,1.8-1.63.26-.26,1.5-2.14,1.5-2.14.32-.38-4.49-.69-5.5,3.63-.27,0-.52,0-.76,0a7.46,7.46,0,0,0-.23-.72c3.68-2.48,1.68-6.87,1.44-6.44,0,0-1.31,1.83-1.47,2.17-.81,1.75.84,5.34-.88,2.25-1.45-2.58-1.17-.81-.21-2.69a4.12,4.12,0,0,0-.52-4.48c-.08-.16-.16,0-.78,1.5s.11,2,.22,3.44A17.65,17.65,0,0,1,37,77.21a17.72,17.72,0,0,1-2.71-3.91c1.4.49,1.63,1.32,3.26,1.12s1.79-.24,1.66-.37A4.14,4.14,0,0,0,35,72.37c-2.07.44-.44,1.18-2.55-.9-2.53-2.47.5.06,2.41-.26.37-.06,2.47-.86,2.48-.86.48-.11-3.23-3.19-6.59-.29l-.63-.42c.08-.22.16-.46.23-.71,4.44.16,5.4-4.57,5-4.36,0,0-2.14.7-2.46.89-1.69.94-2.47,4.81-2,1.3.34-2.94-.47-1.35,1.41-2.3a4.13,4.13,0,0,0,2.22-3.93c0-.18-.15-.09-1.52.75s-1.06,1.66-1.84,2.91a17.45,17.45,0,0,1-.34-4.74,17.74,17.74,0,0,1,.11-4.75c.84,1.21.54,2,2,2.82s1.59.85,1.55.68A4.11,4.11,0,0,0,32,54.38c-1.93-.86-1,.69-1.53-2.23-.59-3.49.37.34,2.1,1.2.34.17,2.51.77,2.51.77.45.19-.73-4.49-5.16-4.12-.08-.24-.17-.48-.26-.7l.61-.44c3.49,2.73,7-.53,6.56-.62,0,0-2.14-.69-2.52-.73-1.91-.23-4.82,2.44-2.41-.14,2-2.18.41-1.37,2.5-1a4.13,4.13,0,0,0,4.1-1.88c.13-.13-.06-.16-1.67-.29s-1.83.72-3.2,1.28a17.18,17.18,0,0,1,2.52-4A17.6,17.6,0,0,1,39,37.63c0,1.48-.75,2,0,3.45s.78,1.62.86,1.46a4.14,4.14,0,0,0,.3-4.5c-1.06-1.83-1.25-.06.07-2.7,1.57-3.17.1.49,1,2.2.17.33,1.57,2.09,1.57,2.1.26.42,2-4.06-1.75-6.36.07-.25.14-.5.2-.73q.36,0,.75,0c1.22,4.27,6,3.72,5.67,3.36,0,0-1.33-1.82-1.6-2.07-1.42-1.31-5.34-.85-1.87-1.53,2.9-.59,1.13-.87,2.62.63a4.13,4.13,0,0,0,4.43.89c.18,0,0-.16-1.19-1.21s-1.9-.49-3.34-.85A17.61,17.61,0,0,1,51.08,30a17.22,17.22,0,0,1,4.55-1.37c-.89,1.17-1.75,1.14-2.07,2.75s-.32,1.78-.16,1.69a4.15,4.15,0,0,0,2.89-3.47c.22-2.1-1-.77,1.65-2.14,3.13-1.64-.22.46-.5,2.37,0,.37.05,2.62.05,2.62,0,.49,4-2.08,2.32-6.17l.58-.47.61.44c-1.52,4.17,2.68,6.54,2.62,6.05,0,0,0-2.25-.09-2.62-.37-1.89-3.81-3.83-.6-2.34,2.69,1.24,1.42,0,1.75,2.06a4.12,4.12,0,0,0,3,3.32c.16.08.13-.11-.25-1.68s-1.25-1.51-2.2-2.65a17.92,17.92,0,0,1,4.62,1.15,17.74,17.74,0,0,1,4.49,1.57c-1.42.43-2.1-.11-3.3,1s-1.3,1.25-1.12,1.27a4.13,4.13,0,0,0,4.37-1.1c1.42-1.57-.33-1.21,2.59-.77,3.5.51-.44.25-1.79,1.63-.26.26-1.5,2.14-1.5,2.14-.32.38,4.49.69,5.5-3.63.26,0,.52,0,.76,0a7.3,7.3,0,0,0,.23.71c-3.68,2.48-1.68,6.87-1.45,6.44,0,0,1.32-1.83,1.48-2.17.81-1.75-.84-5.34.88-2.25,1.45,2.58,1.17.81.21,2.69a4.1,4.1,0,0,0,.52,4.48c.08.16.16,0,.78-1.5s-.12-2-.22-3.44a17.65,17.65,0,0,1,3.06,3.64,18,18,0,0,1,2.71,3.91c-1.4-.49-1.63-1.32-3.26-1.12s-1.79.24-1.66.37a4.13,4.13,0,0,0,4.19,1.68c2.07-.44.44-1.18,2.55.9,2.52,2.47-.5-.06-2.41.27-.37.05-2.47.85-2.48.85-.48.11,3.23,3.19,6.59.29l.63.42c-.08.22-.16.46-.23.71-4.44-.15-5.4,4.57-5,4.36,0,0,2.14-.7,2.46-.89,1.69-.94,2.47-4.81,2-1.3C91.23,53.61,92,52,90.16,53a4.14,4.14,0,0,0-2.22,3.93c0,.18.14.09,1.52-.75s1.06-1.66,1.84-2.91A17.22,17.22,0,0,1,91.63,58Zm16.94,14.87c.46-.33.57-.42.26.08C108.82,73.52,108.77,73.38,108.57,72.85Zm-.74-30.55c.18-.54.22-.68.26-.09C108.43,42.7,108.31,42.61,107.83,42.3ZM89.28,18c-.18-.54-.23-.67.15-.22C90,18,89.84,18,89.28,18ZM60,9.28c-.45-.33-.58-.41,0-.27C60.55,8.84,60.44,8.93,60,9.28ZM31.17,19.43c-.57,0-.72,0-.17-.22C31.36,18.74,31.32,18.88,31.17,19.43ZM13.81,44.58c-.46.33-.58.42-.27-.08C13.56,43.91,13.61,44.05,13.81,44.58Zm.74,30.55c-.18.54-.22.68-.26.09C14,74.73,14.07,74.82,14.55,75.13ZM33.1,99.41c.18.54.23.68-.16.22C32.39,99.44,32.53,99.44,33.1,99.41Zm29.28,8.74c.46.33.58.41,0,.27C61.82,108.59,61.94,108.5,62.38,108.15ZM91.21,98c.57,0,.71,0,.17.22C91,98.69,91.06,98.55,91.21,98ZM86,66.13a48.53,48.53,0,0,1-1.51-8,47.44,47.44,0,0,1,1.13-8,47.47,47.47,0,0,1-5.92-5.57,47.46,47.46,0,0,1-3.81-7.16,47.63,47.63,0,0,1-8.06-1,49.09,49.09,0,0,1-7.3-3.55,48.47,48.47,0,0,1-7.12,3.9,47.85,47.85,0,0,1-8,1.41A48.07,48.07,0,0,1,42,45.46a47.73,47.73,0,0,1-5.64,5.84,47.54,47.54,0,0,1,1.52,8,47.44,47.44,0,0,1-1.13,8,47.38,47.38,0,0,1,5.91,5.57,46.62,46.62,0,0,1,3.82,7.16,47.63,47.63,0,0,1,8.06,1,48.19,48.19,0,0,1,7.3,3.56,47.62,47.62,0,0,1,7.12-3.91,47.67,47.67,0,0,1,8-1.41A47.14,47.14,0,0,1,80.4,72,47.64,47.64,0,0,1,86,66.13ZM67,60.45a4.73,4.73,0,0,0,.6-1.89,4.74,4.74,0,0,0-.69-1.86,4.6,4.6,0,0,0-.63-1.88,4.68,4.68,0,0,0-1.65-1.1A4.84,4.84,0,0,0,63,52.56a4.68,4.68,0,0,0-2,.09,4.56,4.56,0,0,0-2,0,4.76,4.76,0,0,0-1.56,1.23,4.67,4.67,0,0,0-1.59,1.18A4.61,4.61,0,0,0,55.37,57a4.73,4.73,0,0,0-.6,1.89,4.74,4.74,0,0,0,.69,1.86,4.6,4.6,0,0,0,.63,1.88,4.68,4.68,0,0,0,1.65,1.1,4.7,4.7,0,0,0,1.61,1.16,4.68,4.68,0,0,0,2-.09,4.56,4.56,0,0,0,2,0,4.76,4.76,0,0,0,1.56-1.23,4.67,4.67,0,0,0,1.59-1.18A4.57,4.57,0,0,0,67,60.45Zm2-1.92a13.07,13.07,0,0,0-.47,2.39,13.58,13.58,0,0,0-.92,2.26,11.86,11.86,0,0,0-1.78,1.67,12,12,0,0,0-2.08,1.28,12,12,0,0,0-2.42.3,12.8,12.8,0,0,0-2.44-.18,11.62,11.62,0,0,0-2.14-1.18,12,12,0,0,0-1.86-1.58,11.59,11.59,0,0,0-1-2.21,12.55,12.55,0,0,0-.58-2.37,12.37,12.37,0,0,0,.46-2.4,12.71,12.71,0,0,0,.93-2.26,11.86,11.86,0,0,0,1.78-1.67,12,12,0,0,0,2.08-1.28A12.13,12.13,0,0,0,61,51a12.73,12.73,0,0,0,2.44.18,11.91,11.91,0,0,0,2.13,1.18,12.62,12.62,0,0,0,1.87,1.58,11.59,11.59,0,0,0,1,2.21A12.81,12.81,0,0,0,69.05,58.53Zm.18,2.58c.25-.83.3-1.93.59-2.6-.32-.67-.42-1.76-.72-2.58s-.89-1.74-1-2.46c-.65-.34-1.38-1.17-2.1-1.66s-1.74-.88-2.29-1.37c-.73.1-1.8-.14-2.67-.11s-1.93.31-2.67.24c-.53.51-1.54,1-2.22,1.48s-1.38,1.38-2,1.76c-.14.73-.7,1.67-.94,2.51s-.3,1.93-.59,2.6c.32.67.42,1.76.72,2.58s.88,1.74,1,2.46c.65.35,1.38,1.17,2.09,1.66s1.74.88,2.3,1.37c.73-.1,1.8.14,2.67.11s1.93-.31,2.66-.24c.54-.51,1.55-1,2.23-1.48s1.38-1.38,2-1.76C68.42,62.89,69,62,69.23,61.11Zm2.65-2.65a11.51,11.51,0,0,1,2.58,3.38c-.23.22-.44.44-.62.65,0,.28.09.57.16.88a11.18,11.18,0,0,1-4,1.42A11.24,11.24,0,0,1,70.08,69l-.88.16c-.13.25-.26.52-.38.81a11.08,11.08,0,0,1-4.08-1.21,11.16,11.16,0,0,1-2.43,3.5,8.36,8.36,0,0,0-.8-.39c-.25.12-.52.27-.79.43A11.29,11.29,0,0,1,58.13,69a11.32,11.32,0,0,1-4,1.41,8.25,8.25,0,0,0-.43-.79c-.28,0-.57-.09-.89-.12a11.55,11.55,0,0,1-.11-4.25A11.2,11.2,0,0,1,48.62,64c.05-.31.09-.6.12-.88-.2-.21-.41-.41-.65-.62A11.32,11.32,0,0,1,50.5,59a11.32,11.32,0,0,1-2.58-3.38c.23-.22.44-.44.62-.65,0-.28-.09-.57-.16-.88a11.18,11.18,0,0,1,4-1.42,11.33,11.33,0,0,1-.1-4.25l.89-.16c.13-.25.26-.52.38-.81a11.3,11.3,0,0,1,4.08,1.21,11.37,11.37,0,0,1,2.42-3.5q.42.23.81.39a7.85,7.85,0,0,0,.79-.43,11.61,11.61,0,0,1,2.59,3.38,11.32,11.32,0,0,1,4-1.41,8.25,8.25,0,0,0,.43.79c.27,0,.57.09.88.12a11.24,11.24,0,0,1,.12,4.25,11.2,11.2,0,0,1,4.07,1.23c-.06.31-.09.6-.12.88.2.21.41.41.65.62A11.32,11.32,0,0,1,71.88,58.46Zm9.46,6.27c-.48-2.19-.83-4.4-1.13-6.47.2-2.09.44-4.31.82-6.52-1.68-1.49-3.26-3.07-4.72-4.58-1.07-1.8-2.18-3.74-3.17-5.75-2.24-.22-4.44-.57-6.51-.93-1.93-.83-4-1.75-5.95-2.79-1.93,1.14-3.92,2.15-5.81,3.08-2,.46-4.23.91-6.45,1.23-.9,2.06-1.91,4-2.89,5.91-1.39,1.57-2.89,3.22-4.49,4.79.48,2.19.83,4.4,1.13,6.48-.2,2.08-.44,4.31-.82,6.52,1.68,1.48,3.26,3.06,4.72,4.57,1.07,1.8,2.18,3.74,3.17,5.75,2.23.22,4.44.57,6.51.93,1.93.83,4,1.75,6,2.79,1.93-1.14,3.92-2.15,5.8-3.08,2-.45,4.24-.91,6.46-1.23.9-2.06,1.91-4.05,2.89-5.91C78.24,68,79.74,66.3,81.34,64.73Zm.28-6.51a63.49,63.49,0,0,0,.92,6.87A61.43,61.43,0,0,0,78,70.32a61.28,61.28,0,0,0-3.29,6.1A63.2,63.2,0,0,0,68,78a62.47,62.47,0,0,0-6.24,3,63.65,63.65,0,0,0-6.38-2.69,60.34,60.34,0,0,0-6.82-1.24A60.33,60.33,0,0,0,45,71.12a64.17,64.17,0,0,0-4.78-5,62.78,62.78,0,0,0,.59-6.9,63.49,63.49,0,0,0-.92-6.87,63.27,63.27,0,0,0,4.53-5.23A63.41,63.41,0,0,0,47.66,41a61.4,61.4,0,0,0,6.75-1.57,62.47,62.47,0,0,0,6.24-3A62.68,62.68,0,0,0,67,39.13a62.23,62.23,0,0,0,6.82,1.25,61.36,61.36,0,0,0,3.58,5.93,62.44,62.44,0,0,0,4.78,5A60.43,60.43,0,0,0,81.62,58.22Zm2.33,0a41.24,41.24,0,0,0,1.19,7.69,42,42,0,0,0-5.22,5.79,42,42,0,0,0-3.56,6.92,42.11,42.11,0,0,0-7.62,1.62,42.29,42.29,0,0,0-6.95,3.51,41.44,41.44,0,0,0-7.11-3.17A42.06,42.06,0,0,0,47,79.28a41.53,41.53,0,0,0-3.89-6.74A41.53,41.53,0,0,0,37.62,67a42.06,42.06,0,0,0,.81-7.74,41.35,41.35,0,0,0-1.19-7.7,42,42,0,0,0,5.22-5.79A42.76,42.76,0,0,0,46,38.86a42.19,42.19,0,0,0,7.61-1.62,42,42,0,0,0,7-3.51A41.1,41.1,0,0,0,67.7,36.9a42.09,42.09,0,0,0,7.68,1.25,42.35,42.35,0,0,0,3.9,6.74,41.53,41.53,0,0,0,5.48,5.53A42.08,42.08,0,0,0,84,58.17Zm-.61,7.16a36.28,36.28,0,0,1-.76-4c-.15-1.14-.28-2.18-.39-3.13.06-1,.14-2,.24-3.15A34.12,34.12,0,0,1,83,51a34.28,34.28,0,0,1-3-2.78c-.8-.83-1.51-1.59-2.16-2.3s-1.06-1.7-1.65-2.68a38.36,38.36,0,0,1-1.91-3.59,36.4,36.4,0,0,1-4-.51c-1.13-.21-2.16-.4-3.1-.59l-2.91-1.2a36.5,36.5,0,0,1-3.65-1.79,35.78,35.78,0,0,1-3.56,2c-1,.5-2,.94-2.85,1.34-.93.24-1.95.48-3.07.74a33,33,0,0,1-4,.7A34.39,34.39,0,0,1,45.42,44c-.54,1-1.05,1.93-1.52,2.76s-1.29,1.54-2,2.41A34.21,34.21,0,0,1,39,52.1a34.44,34.44,0,0,1,.77,4c.15,1.14.28,2.18.39,3.13-.06,1-.14,2-.24,3.15a36.35,36.35,0,0,1-.57,4,35.8,35.8,0,0,1,3,2.78c.79.83,1.51,1.59,2.16,2.3s1.06,1.7,1.65,2.68a38.36,38.36,0,0,1,1.91,3.59,36.4,36.4,0,0,1,4,.51c1.13.21,2.16.4,3.09.59L58.1,80a36.5,36.5,0,0,1,3.65,1.79,35.78,35.78,0,0,1,3.56-2c1-.5,2-.94,2.85-1.34.93-.24,2-.48,3.07-.74a32.69,32.69,0,0,1,4-.7A36.3,36.3,0,0,1,77,73.41c.55-1,1.06-1.93,1.52-2.76.62-.74,1.3-1.54,2-2.4A34.38,34.38,0,0,1,83.34,65.33Z"/><path class="cls-2" d="M64.4,59.67c.23-.1.47-.21.74-.3s.22-.28.25-.76,0-.79-.29-.74a6.54,6.54,0,0,1-.75-.27c.12-.22.26-.44.42-.68s0-.35-.24-.76-.51-.61-.67-.43-.52.17-.77.23c0-.25-.05-.52-.06-.8s-.19-.29-.64-.47-.77-.19-.79,0l-.49.64c-.17-.19-.35-.39-.52-.61s-.33-.13-.8,0-.74.3-.61.5,0,.55,0,.8c-.25,0-.51-.11-.78-.18s-.34.09-.65.46-.42.67-.2.77a6.44,6.44,0,0,1,.45.66c-.23.1-.48.21-.74.3s-.22.28-.25.76,0,.79.28.74a6.09,6.09,0,0,1,.76.27c-.12.22-.26.44-.42.68s0,.35.24.76.51.61.67.43.52-.17.77-.23c0,.25.05.52.06.8s.19.29.64.47.77.2.79,0,.33-.44.49-.64c.17.19.35.39.52.61s.33.13.79,0,.74-.3.62-.5,0-.55,0-.8c.25,0,.51.11.78.19s.34-.1.65-.47.42-.67.2-.77A6.44,6.44,0,0,1,64.4,59.67Zm0-1c-.24.22-.59.46-1,.74a10.1,10.1,0,0,1,.4,1.15,11.2,11.2,0,0,1-1.22,0,11.71,11.71,0,0,1-.35,1.17,10.94,10.94,0,0,1-1-.69c-.38.3-.7.57-1,.74a11.12,11.12,0,0,1-.41-1.15c-.48,0-.9,0-1.22,0A10.08,10.08,0,0,1,59,59.49c-.4-.27-.76-.49-1-.7a11.37,11.37,0,0,1,1-.74,10.1,10.1,0,0,1-.4-1.15,11.13,11.13,0,0,1,1.22,0c.13-.46.23-.88.35-1.17a10.94,10.94,0,0,1,1,.69c.38-.3.7-.57,1-.74a11.12,11.12,0,0,1,.41,1.15c.48,0,.9,0,1.22,0a10.08,10.08,0,0,1-.35,1.17C63.78,58.21,64.14,58.43,64.39,58.64Zm-2.47.29a2.85,2.85,0,0,1,.43-.24,2.71,2.71,0,0,1-.44-.23,4.15,4.15,0,0,1,.2-.45,3.85,3.85,0,0,1-.49.08c0-.2-.08-.36-.1-.49a2.81,2.81,0,0,1-.35.36,3.3,3.3,0,0,1-.37-.34,4.08,4.08,0,0,1-.07.49,2.84,2.84,0,0,1-.5-.06,3.68,3.68,0,0,1,.23.45,2.48,2.48,0,0,1-.44.24,2.4,2.4,0,0,1,.45.23,2.41,2.41,0,0,1-.21.45,3.75,3.75,0,0,1,.5-.08c.05.2.08.36.1.49a2.28,2.28,0,0,1,.35-.35,2.57,2.57,0,0,1,.37.33,2,2,0,0,1,.07-.49,2.84,2.84,0,0,1,.5.06A3.68,3.68,0,0,1,61.92,58.93Z"/></g></g></g></svg>